<svg width="296" height="258" viewBox="0 0 296 258" fill="none" xmlns="http://www.w3.org/2000/svg">
<path d="M46.5244 167V140.772L80.2224 105.912C84.2064 101.707 86.9731 98.276 88.5224 95.62C90.1824 92.8533 91.0124 90.0867 91.0124 87.32C91.0124 83.8893 89.7951 81.344 87.3604 79.684C85.0364 77.9133 81.6611 77.028 77.2344 77.028C73.2504 77.028 69.0451 77.8027 64.6184 79.352C60.3024 80.7907 55.8758 83.1147 51.3384 86.324L40.5484 60.428C45.8604 56.5547 52.2238 53.5113 59.6384 51.298C67.1638 49.0847 74.7998 47.978 82.5464 47.978C96.7118 47.978 107.446 51.0213 114.75 57.108C122.165 63.084 125.872 71.716 125.872 83.004C125.872 90.0867 124.323 96.8373 121.224 103.256C118.126 109.675 112.703 116.536 104.956 123.84L80.5544 147.08V138.116H130.022V167H46.5244Z" fill="url(#paint0_linear_7975_21841)"/>
<g clip-path="url(#clip0_7975_21841)">
<path d="M193.124 192.246C207.385 185.338 218.818 173.749 225.559 162.778C232.32 151.498 234.389 140.816 230.927 128.588C223.571 103.801 182.449 77.5287 149.196 75.714C131.698 74.7448 119.978 85.5711 115.45 101.924C110.717 118.215 113.135 140.033 119.241 159.499C125.51 179.77 138.275 193.133 151.634 197.752C165.198 202.681 179.335 198.887 193.145 192.246H193.124Z" fill="#23A48B"/>
<path d="M182.941 142.323L134.8 149.469C133.087 149.723 131.904 151.327 132.156 153.051L136.36 181.734C136.612 183.458 138.206 184.649 139.918 184.395L188.059 177.249C189.772 176.995 190.956 175.391 190.703 173.667L186.5 144.984C186.247 143.26 184.654 142.068 182.941 142.323Z" fill="#256981"/>
<path d="M145.358 157.252L138.669 158.245C137.863 158.365 137.306 159.12 137.424 159.931L138.181 165.092C138.3 165.903 139.049 166.464 139.856 166.344L146.545 165.351C147.351 165.232 147.908 164.477 147.789 163.666L147.032 158.505C146.913 157.693 146.164 157.133 145.358 157.252Z" fill="#F8DE61"/>
<path d="M147.826 163.992L138.218 165.418L138.248 165.622L147.856 164.196L147.826 163.992Z" fill="#B3AB33"/>
<path d="M142.15 158.681L137.346 159.395L137.376 159.599L142.18 158.885L142.15 158.681Z" fill="#B3AB33"/>
<path d="M146.956 157.985L142.152 158.698L142.182 158.902L146.986 158.189L146.956 157.985Z" fill="#B3AB33"/>
<path d="M147.564 162.083L144.646 162.516L144.675 162.72L147.594 162.287L147.564 162.083Z" fill="#B3AB33"/>
<path d="M140.875 163.074L137.956 163.507L137.986 163.711L140.905 163.278L140.875 163.074Z" fill="#B3AB33"/>
<path d="M143.049 164.902C141.963 165.067 140.939 164.304 140.775 163.191C140.713 162.799 140.775 162.407 140.939 162.036C140.672 161.747 140.508 161.376 140.447 160.984C140.283 159.891 141.041 158.86 142.147 158.695L142.188 158.901C141.205 159.046 140.529 159.974 140.672 160.943C140.734 161.314 140.898 161.665 141.164 161.933L141.225 161.995L141.184 162.056C141.021 162.386 140.939 162.778 141 163.149C141.143 164.139 142.065 164.82 143.028 164.675C143.991 164.531 144.688 163.603 144.545 162.634C144.483 162.263 144.319 161.912 144.053 161.644L143.991 161.582L144.032 161.52C144.196 161.19 144.278 160.798 144.217 160.427V160.324L147.229 159.87L147.27 160.077L144.442 160.489C144.483 160.84 144.422 161.211 144.258 161.541C144.524 161.83 144.688 162.201 144.75 162.593C144.913 163.685 144.155 164.717 143.049 164.882V164.902Z" fill="#B3AB33"/>
<path d="M140.538 160.877L137.619 161.31L137.649 161.514L140.568 161.081L140.538 160.877Z" fill="#B3AB33"/>
<path d="M142.126 157.726L141.923 157.756L142.079 158.817L142.281 158.787L142.126 157.726Z" fill="#B3AB33"/>
<path d="M143.138 164.779L142.935 164.81L143.09 165.87L143.293 165.84L143.138 164.779Z" fill="#B3AB33"/>
<path d="M170.976 148.405L171.898 148.261C172.328 148.199 172.635 148.219 172.84 148.302C173.045 148.405 173.168 148.57 173.209 148.838C173.229 149.024 173.209 149.168 173.147 149.292C173.086 149.415 172.984 149.498 172.84 149.539C173.045 149.58 173.188 149.642 173.291 149.745C173.393 149.848 173.455 149.993 173.475 150.199C173.516 150.467 173.455 150.694 173.27 150.88C173.086 151.065 172.84 151.168 172.512 151.23L171.406 151.395L170.976 148.384V148.405ZM171.775 149.498L172.143 149.436C172.307 149.415 172.43 149.374 172.512 149.292C172.594 149.209 172.615 149.127 172.594 149.003C172.594 148.879 172.533 148.817 172.43 148.776C172.328 148.735 172.205 148.735 172.021 148.776L171.693 148.817L171.795 149.477L171.775 149.498ZM171.857 150.013L171.98 150.797L172.389 150.735C172.574 150.715 172.697 150.653 172.758 150.57C172.84 150.488 172.861 150.385 172.84 150.24C172.799 149.993 172.615 149.89 172.246 149.952L171.857 150.013V150.013Z" fill="#23A48B"/>
<path d="M176.036 150.735L175.709 150.055L174.623 150.22L174.52 150.962L173.844 151.065L174.459 147.889L175.237 147.766L176.733 150.632L176.057 150.735H176.036ZM175.483 149.539C175.196 148.92 175.012 148.57 174.991 148.487C174.971 148.405 174.93 148.343 174.909 148.302C174.909 148.487 174.827 148.941 174.705 149.663L175.483 149.539V149.539Z" fill="#23A48B"/>
<path d="M179.745 150.178L178.946 150.302L177.307 148.219C177.389 148.611 177.45 148.9 177.471 149.065L177.676 150.488L177.102 150.57L176.672 147.56L177.471 147.436L179.089 149.498C179.007 149.106 178.966 148.838 178.946 148.673L178.741 147.25L179.315 147.168L179.745 150.178Z" fill="#23A48B"/>
<path d="M182.9 149.704L182.183 149.807L181.22 148.652L180.974 148.879L181.138 149.952L180.503 150.055L180.073 147.044L180.708 146.941L180.913 148.322L181.118 147.931L181.773 146.796L182.47 146.693L181.63 148.178L182.921 149.704H182.9Z" fill="#23A48B"/>
<path d="M140.611 172.47L140.119 172.553L139.832 170.532C139.791 170.285 139.771 170.099 139.771 169.955C139.75 169.996 139.709 170.037 139.668 170.078C139.627 170.12 139.484 170.285 139.259 170.532L138.972 170.243L139.771 169.398L140.181 169.336L140.631 172.45L140.611 172.47Z" fill="#23A48B"/>
<path d="M143.725 172.017L141.635 172.326L141.574 171.955L142.25 171.027C142.455 170.759 142.578 170.553 142.639 170.449C142.701 170.346 142.742 170.223 142.762 170.14C142.783 170.037 142.783 169.955 142.762 169.851C142.742 169.707 142.68 169.604 142.578 169.542C142.475 169.48 142.352 169.46 142.209 169.48C142.086 169.48 141.984 169.542 141.881 169.604C141.779 169.666 141.656 169.769 141.533 169.893L141.226 169.604C141.369 169.439 141.533 169.295 141.676 169.212C141.82 169.13 142.004 169.068 142.189 169.047C142.475 169.006 142.721 169.047 142.906 169.171C143.111 169.295 143.213 169.48 143.254 169.748C143.274 169.893 143.254 170.016 143.254 170.161C143.213 170.284 143.172 170.429 143.09 170.594C143.008 170.738 142.865 170.944 142.66 171.212L142.209 171.81L143.684 171.604L143.746 172.037L143.725 172.017Z" fill="#23A48B"/>
<path d="M145.733 169.253C145.753 169.459 145.733 169.624 145.631 169.769C145.528 169.913 145.385 170.037 145.18 170.099C145.426 170.099 145.631 170.161 145.774 170.264C145.917 170.367 145.999 170.532 146.04 170.738C146.081 171.047 146.02 171.295 145.835 171.48C145.651 171.666 145.364 171.81 144.975 171.852C144.627 171.893 144.34 171.893 144.073 171.81L144.012 171.357C144.155 171.398 144.299 171.439 144.442 171.439C144.586 171.439 144.729 171.439 144.872 171.439C145.118 171.398 145.282 171.336 145.385 171.233C145.487 171.13 145.528 170.985 145.508 170.8C145.487 170.635 145.405 170.511 145.262 170.47C145.118 170.408 144.913 170.408 144.627 170.449L144.36 170.491L144.299 170.078L144.565 170.037C145.057 169.954 145.282 169.748 145.221 169.418C145.221 169.294 145.139 169.191 145.036 169.13C144.934 169.068 144.811 169.047 144.647 169.068C144.524 169.068 144.422 169.109 144.319 169.171C144.217 169.212 144.094 169.294 143.971 169.418L143.684 169.109C143.93 168.861 144.258 168.696 144.627 168.655C144.934 168.614 145.2 168.655 145.385 168.758C145.59 168.861 145.692 169.047 145.733 169.274V169.253Z" fill="#23A48B"/>
<path d="M148.684 170.573L148.274 170.635L148.376 171.315L147.885 171.377L147.782 170.697L146.368 170.903L146.307 170.511L147.413 168.243L147.905 168.181L148.212 170.202L148.622 170.14L148.684 170.552V170.573ZM147.721 170.284L147.598 169.501C147.557 169.212 147.536 168.985 147.516 168.82C147.516 168.82 147.454 169.047 147.372 169.191L146.778 170.429L147.721 170.284V170.284Z" fill="#23A48B"/>
<path d="M152.064 168.779C152.372 168.738 152.638 168.779 152.843 168.923C153.048 169.068 153.171 169.274 153.212 169.563C153.253 169.893 153.212 170.161 153.007 170.388C152.822 170.614 152.556 170.738 152.167 170.8C151.818 170.841 151.532 170.841 151.327 170.759L151.265 170.305C151.388 170.346 151.532 170.388 151.675 170.408C151.818 170.429 151.962 170.408 152.105 170.408C152.331 170.367 152.495 170.305 152.597 170.181C152.699 170.058 152.74 169.913 152.699 169.707C152.638 169.336 152.392 169.191 151.9 169.253C151.839 169.253 151.757 169.274 151.654 169.315C151.552 169.336 151.47 169.377 151.409 169.398L151.163 169.295L151.06 167.748L152.679 167.5L152.74 167.954L151.573 168.119L151.614 168.903L151.798 168.841C151.798 168.841 151.962 168.8 152.064 168.779V168.779Z" fill="#23A48B"/>
<path d="M153.58 169.192C153.396 167.975 153.806 167.294 154.789 167.15C154.953 167.129 155.076 167.129 155.178 167.129L155.24 167.542C155.138 167.542 154.994 167.542 154.851 167.542C154.523 167.583 154.277 167.727 154.134 167.913C153.99 168.099 153.949 168.408 153.99 168.82H154.011C154.052 168.697 154.134 168.594 154.256 168.511C154.359 168.429 154.502 168.387 154.666 168.346C154.953 168.305 155.178 168.346 155.363 168.511C155.547 168.676 155.65 168.882 155.711 169.192C155.752 169.521 155.711 169.79 155.547 170.016C155.383 170.223 155.158 170.367 154.851 170.408C154.625 170.449 154.42 170.408 154.256 170.326C154.072 170.243 153.929 170.099 153.806 169.913C153.683 169.728 153.601 169.48 153.56 169.192H153.58ZM154.81 169.996C154.974 169.975 155.097 169.893 155.178 169.769C155.26 169.645 155.281 169.48 155.24 169.274C155.219 169.088 155.158 168.965 155.056 168.862C154.953 168.779 154.81 168.738 154.646 168.758C154.543 168.758 154.441 168.82 154.359 168.862C154.277 168.923 154.216 168.985 154.175 169.088C154.134 169.171 154.113 169.253 154.134 169.336C154.154 169.542 154.236 169.707 154.379 169.81C154.502 169.934 154.646 169.975 154.83 169.955L154.81 169.996Z" fill="#23A48B"/>
<path d="M156.592 170.099L157.432 167.253L155.814 167.5L155.752 167.067L157.883 166.758L157.924 167.109L157.104 170.058L156.572 170.14L156.592 170.099Z" fill="#23A48B"/>
<path d="M159.297 166.469C159.584 166.428 159.83 166.469 160.014 166.573C160.198 166.676 160.321 166.861 160.342 167.088C160.383 167.418 160.239 167.686 159.891 167.934C160.157 168.016 160.342 168.119 160.465 168.243C160.588 168.367 160.67 168.511 160.69 168.676C160.731 168.923 160.67 169.15 160.506 169.336C160.342 169.521 160.096 169.625 159.768 169.686C159.44 169.748 159.154 169.686 158.949 169.583C158.744 169.46 158.621 169.274 158.58 169.006C158.559 168.841 158.58 168.676 158.662 168.511C158.744 168.367 158.887 168.202 159.092 168.078C158.887 167.995 158.744 167.892 158.641 167.769C158.539 167.645 158.477 167.521 158.457 167.356C158.416 167.129 158.477 166.944 158.641 166.779C158.805 166.614 159.01 166.511 159.297 166.469V166.469ZM159.072 168.903C159.092 169.047 159.154 169.15 159.276 169.233C159.399 169.315 159.543 169.315 159.707 169.295C159.871 169.274 160.014 169.212 160.116 169.109C160.198 169.006 160.239 168.882 160.219 168.738C160.219 168.614 160.137 168.532 160.035 168.449C159.932 168.367 159.768 168.305 159.563 168.243H159.502C159.317 168.325 159.215 168.449 159.133 168.552C159.072 168.655 159.051 168.779 159.051 168.903H159.072ZM159.358 166.861C159.215 166.882 159.113 166.944 159.031 167.026C158.949 167.109 158.928 167.212 158.949 167.336C158.949 167.418 158.99 167.48 159.031 167.521C159.072 167.583 159.133 167.624 159.194 167.665C159.256 167.707 159.379 167.748 159.522 167.789C159.686 167.686 159.789 167.583 159.85 167.5C159.912 167.397 159.932 167.315 159.912 167.191C159.912 167.067 159.83 166.985 159.748 166.923C159.645 166.861 159.522 166.841 159.379 166.861H159.358Z" fill="#23A48B"/>
<path d="M165.28 166.985C165.362 167.604 165.321 168.078 165.116 168.408C164.911 168.738 164.563 168.944 164.071 169.027C163.886 169.047 163.743 169.068 163.661 169.047L163.6 168.635C163.722 168.635 163.866 168.635 163.989 168.635C164.317 168.594 164.563 168.449 164.706 168.243C164.849 168.037 164.89 167.727 164.849 167.356H164.829C164.767 167.501 164.685 167.604 164.563 167.686C164.46 167.769 164.317 167.81 164.153 167.831C163.886 167.872 163.661 167.831 163.477 167.666C163.292 167.521 163.19 167.294 163.128 166.985C163.087 166.655 163.128 166.387 163.292 166.16C163.436 165.933 163.682 165.81 163.989 165.768C164.214 165.727 164.419 165.768 164.583 165.851C164.767 165.933 164.911 166.078 165.034 166.263C165.157 166.449 165.239 166.696 165.28 166.985ZM164.05 166.181C163.886 166.201 163.763 166.284 163.682 166.408C163.6 166.531 163.579 166.696 163.62 166.903C163.641 167.088 163.702 167.212 163.804 167.294C163.907 167.377 164.05 167.418 164.214 167.397C164.378 167.377 164.522 167.294 164.624 167.191C164.726 167.068 164.767 166.944 164.747 166.82C164.747 166.696 164.685 166.573 164.624 166.47C164.563 166.366 164.481 166.284 164.378 166.243C164.276 166.201 164.173 166.181 164.071 166.201L164.05 166.181Z" fill="#23A48B"/>
<path d="M167.8 166.841C167.882 167.377 167.861 167.789 167.718 168.078C167.575 168.367 167.329 168.532 166.98 168.593C166.632 168.655 166.345 168.552 166.14 168.305C165.915 168.057 165.771 167.665 165.69 167.15C165.608 166.634 165.628 166.181 165.771 165.892C165.915 165.603 166.161 165.438 166.509 165.376C166.857 165.315 167.144 165.418 167.349 165.665C167.554 165.913 167.718 166.304 167.8 166.82V166.841ZM166.202 167.088C166.263 167.521 166.345 167.81 166.468 167.975C166.591 168.14 166.734 168.222 166.919 168.181C167.103 168.14 167.226 168.037 167.288 167.851C167.349 167.645 167.349 167.335 167.288 166.923C167.226 166.511 167.144 166.201 167.021 166.036C166.898 165.871 166.755 165.789 166.571 165.809C166.386 165.83 166.263 165.954 166.202 166.139C166.14 166.346 166.14 166.655 166.202 167.067V167.088Z" fill="#23A48B"/>
<path d="M170.279 166.469C170.361 167.006 170.34 167.418 170.197 167.707C170.054 167.995 169.808 168.16 169.459 168.222C169.111 168.284 168.824 168.181 168.619 167.934C168.414 167.686 168.25 167.294 168.169 166.779C168.087 166.263 168.107 165.81 168.25 165.521C168.394 165.232 168.64 165.067 168.988 165.005C169.336 164.943 169.623 165.047 169.828 165.294C170.033 165.541 170.197 165.933 170.279 166.449V166.469ZM168.681 166.717C168.742 167.15 168.824 167.439 168.947 167.604C169.07 167.769 169.213 167.851 169.398 167.81C169.582 167.769 169.705 167.666 169.767 167.48C169.828 167.274 169.828 166.964 169.767 166.552C169.705 166.14 169.623 165.83 169.5 165.665C169.377 165.5 169.234 165.418 169.05 165.438C168.865 165.459 168.742 165.583 168.681 165.768C168.619 165.975 168.619 166.284 168.681 166.696V166.717Z" fill="#23A48B"/>
<path d="M172.738 166.119C172.82 166.655 172.799 167.067 172.656 167.356C172.512 167.645 172.266 167.81 171.918 167.872C171.57 167.934 171.283 167.83 171.078 167.583C170.873 167.336 170.709 166.944 170.627 166.428C170.545 165.913 170.566 165.459 170.709 165.17C170.853 164.882 171.099 164.717 171.447 164.655C171.795 164.593 172.082 164.696 172.287 164.943C172.512 165.191 172.656 165.583 172.738 166.098V166.119ZM171.14 166.366C171.201 166.799 171.283 167.088 171.406 167.253C171.529 167.418 171.672 167.501 171.857 167.459C172.041 167.418 172.164 167.315 172.225 167.129C172.287 166.923 172.287 166.614 172.225 166.201C172.164 165.789 172.082 165.48 171.959 165.315C171.836 165.15 171.693 165.067 171.508 165.088C171.324 165.108 171.201 165.232 171.14 165.418C171.078 165.624 171.078 165.933 171.14 166.346V166.366Z" fill="#23A48B"/>
<path d="M177.471 165.418C177.553 165.954 177.532 166.366 177.389 166.655C177.245 166.944 176.999 167.109 176.651 167.171C176.303 167.232 176.016 167.129 175.811 166.882C175.586 166.634 175.442 166.243 175.36 165.727C175.278 165.211 175.299 164.758 175.442 164.469C175.586 164.18 175.831 164.015 176.18 163.954C176.528 163.892 176.815 163.995 177.02 164.242C177.225 164.49 177.389 164.882 177.471 165.397V165.418ZM175.872 165.665C175.934 166.098 176.016 166.387 176.139 166.552C176.262 166.717 176.405 166.799 176.59 166.758C176.774 166.717 176.897 166.614 176.958 166.428C177.02 166.222 177.02 165.913 176.958 165.5C176.897 165.088 176.815 164.778 176.692 164.613C176.569 164.448 176.426 164.366 176.241 164.387C176.057 164.407 175.934 164.531 175.872 164.717C175.811 164.923 175.811 165.232 175.872 165.645V165.665Z" fill="#23A48B"/>
<path d="M179.95 165.047C180.032 165.583 180.011 165.995 179.868 166.284C179.724 166.573 179.479 166.738 179.13 166.799C178.782 166.861 178.495 166.758 178.29 166.511C178.065 166.263 177.921 165.871 177.839 165.356C177.757 164.84 177.778 164.387 177.921 164.098C178.065 163.809 178.311 163.644 178.659 163.582C179.007 163.521 179.294 163.624 179.499 163.871C179.704 164.119 179.868 164.51 179.95 165.026V165.047ZM178.352 165.294C178.413 165.727 178.495 166.016 178.618 166.181C178.741 166.346 178.884 166.428 179.069 166.387C179.253 166.346 179.376 166.243 179.438 166.057C179.499 165.851 179.499 165.542 179.438 165.129C179.376 164.717 179.294 164.407 179.171 164.242C179.048 164.077 178.905 163.995 178.72 164.016C178.536 164.036 178.413 164.16 178.352 164.345C178.29 164.552 178.29 164.861 178.352 165.273V165.294Z" fill="#23A48B"/>
<path d="M182.429 164.675C182.511 165.211 182.491 165.624 182.347 165.913C182.204 166.201 181.958 166.366 181.61 166.428C181.261 166.49 180.974 166.387 180.769 166.139C180.544 165.892 180.401 165.5 180.319 164.985C180.237 164.469 180.257 164.015 180.401 163.727C180.544 163.438 180.79 163.273 181.138 163.211C181.487 163.149 181.773 163.252 181.978 163.5C182.183 163.747 182.347 164.139 182.429 164.655V164.675ZM180.831 164.923C180.892 165.356 180.974 165.644 181.097 165.809C181.22 165.974 181.364 166.057 181.548 166.016C181.732 165.974 181.855 165.871 181.917 165.686C181.978 165.48 181.978 165.17 181.917 164.758C181.855 164.345 181.773 164.036 181.65 163.871C181.528 163.706 181.384 163.624 181.2 163.644C181.015 163.665 180.892 163.789 180.831 163.974C180.769 164.18 180.769 164.49 180.831 164.902V164.923Z" fill="#23A48B"/>
<path d="M184.908 164.304C184.99 164.84 184.97 165.253 184.826 165.541C184.683 165.83 184.437 165.995 184.089 166.057C183.74 166.119 183.454 166.016 183.249 165.768C183.023 165.521 182.88 165.129 182.798 164.614C182.716 164.098 182.736 163.644 182.88 163.356C183.023 163.067 183.269 162.902 183.618 162.84C183.966 162.778 184.253 162.881 184.458 163.129C184.662 163.376 184.826 163.768 184.908 164.284V164.304ZM183.31 164.552C183.372 164.985 183.454 165.273 183.577 165.438C183.699 165.603 183.843 165.686 184.027 165.645C184.212 165.603 184.335 165.5 184.396 165.315C184.458 165.108 184.458 164.799 184.396 164.387C184.335 163.974 184.253 163.665 184.13 163.5C184.007 163.335 183.863 163.252 183.679 163.273C183.495 163.294 183.372 163.417 183.31 163.603C183.249 163.809 183.249 164.119 183.31 164.531V164.552Z" fill="#23A48B"/>
<path d="M140.918 178.513C140.795 178.513 140.693 178.595 140.631 178.698C140.57 178.801 140.549 178.946 140.59 179.131C140.652 179.502 140.816 179.667 141.082 179.626C141.205 179.626 141.328 179.564 141.492 179.482L141.533 179.771C141.41 179.853 141.266 179.894 141.102 179.915C140.857 179.956 140.672 179.915 140.529 179.771C140.385 179.647 140.283 179.441 140.242 179.172C140.221 179.008 140.242 178.843 140.262 178.719C140.303 178.574 140.385 178.471 140.488 178.389C140.59 178.306 140.713 178.245 140.877 178.224C141.041 178.203 141.205 178.224 141.369 178.265L141.307 178.554C141.307 178.554 141.184 178.513 141.123 178.513C141.061 178.513 141 178.513 140.939 178.513H140.918Z" fill="#23A48B"/>
<path d="M142.864 179.626L142.68 179.255L142.086 179.337L142.024 179.75L141.656 179.812L141.983 178.079L142.414 178.018L143.233 179.564L142.864 179.626V179.626ZM142.557 178.966C142.393 178.636 142.311 178.43 142.291 178.389C142.291 178.348 142.25 178.306 142.25 178.286C142.25 178.389 142.209 178.636 142.147 179.028L142.578 178.966H142.557Z" fill="#23A48B"/>
<path d="M143.705 178.863L143.787 179.482L143.438 179.523L143.192 177.894L143.664 177.832C143.889 177.791 144.053 177.832 144.176 177.873C144.299 177.935 144.36 178.059 144.381 178.224C144.381 178.327 144.381 178.409 144.34 178.492C144.299 178.574 144.237 178.636 144.135 178.698C144.442 179.028 144.627 179.234 144.709 179.337L144.319 179.399L143.848 178.822H143.664L143.705 178.863ZM143.664 178.616H143.766C143.869 178.574 143.95 178.554 143.991 178.513C144.032 178.471 144.053 178.409 144.053 178.327C144.053 178.244 144.012 178.203 143.95 178.183C143.889 178.162 143.807 178.162 143.705 178.183H143.602L143.664 178.636V178.616Z" fill="#23A48B"/>
<path d="M146.184 178.286C146.225 178.554 146.184 178.78 146.04 178.945C145.917 179.11 145.692 179.214 145.405 179.255L144.954 179.317L144.708 177.688L145.221 177.605C145.487 177.564 145.692 177.605 145.876 177.729C146.04 177.853 146.143 178.038 146.184 178.286V178.286ZM145.835 178.347C145.774 177.997 145.61 177.853 145.303 177.894H145.118L145.282 178.987H145.426C145.753 178.925 145.897 178.719 145.835 178.347V178.347Z" fill="#23A48B"/>
<path d="M147.966 178.863L147.618 178.904L147.516 178.203L146.88 178.306L146.983 179.007L146.635 179.049L146.389 177.419L146.737 177.378L146.839 178.018L147.475 177.914L147.372 177.275L147.72 177.234L147.966 178.863Z" fill="#23A48B"/>
<path d="M149.728 177.77C149.769 178.038 149.728 178.265 149.626 178.43C149.524 178.595 149.339 178.698 149.093 178.739C148.847 178.781 148.642 178.739 148.479 178.616C148.315 178.492 148.233 178.286 148.192 178.018C148.151 177.75 148.192 177.523 148.294 177.358C148.397 177.193 148.581 177.09 148.847 177.048C149.114 177.007 149.298 177.048 149.462 177.172C149.605 177.296 149.708 177.502 149.749 177.77H149.728ZM148.54 177.956C148.561 178.141 148.622 178.265 148.704 178.348C148.786 178.43 148.888 178.451 149.032 178.451C149.298 178.409 149.421 178.203 149.36 177.832C149.298 177.461 149.134 177.296 148.868 177.337C148.724 177.337 148.642 177.42 148.581 177.523C148.52 177.626 148.52 177.77 148.54 177.956Z" fill="#23A48B"/>
<path d="M150.179 178.554L149.933 176.925L150.281 176.883L150.486 178.224L151.142 178.121L151.183 178.409L150.179 178.554V178.554Z" fill="#23A48B"/>
<path d="M152.699 177.316C152.74 177.584 152.699 177.811 152.556 177.976C152.433 178.141 152.208 178.244 151.921 178.286L151.47 178.347L151.224 176.718L151.736 176.636C152.003 176.595 152.208 176.636 152.392 176.76C152.556 176.883 152.658 177.069 152.699 177.316V177.316ZM152.351 177.378C152.29 177.028 152.126 176.883 151.818 176.925H151.634L151.798 178.017H151.941C152.269 177.956 152.412 177.749 152.351 177.378V177.378Z" fill="#23A48B"/>
<path d="M154.092 177.956L153.15 178.1L152.904 176.471L153.847 176.327L153.888 176.615L153.293 176.698L153.355 177.048L153.908 176.966L153.949 177.255L153.396 177.337L153.457 177.75L154.051 177.667L154.092 177.956V177.956Z" fill="#23A48B"/>
<path d="M154.687 177.234L154.769 177.853L154.42 177.894L154.175 176.265L154.646 176.203C154.871 176.162 155.035 176.203 155.158 176.244C155.281 176.306 155.342 176.43 155.363 176.595C155.363 176.698 155.363 176.78 155.322 176.863C155.281 176.945 155.22 177.007 155.117 177.069C155.424 177.399 155.609 177.605 155.691 177.708L155.301 177.77L154.83 177.193H154.646L154.687 177.234ZM154.646 176.986H154.748C154.851 176.945 154.933 176.925 154.974 176.883C155.015 176.842 155.035 176.78 155.035 176.698C155.035 176.615 154.994 176.574 154.933 176.553C154.871 176.533 154.789 176.533 154.687 176.553H154.584L154.646 177.007V176.986Z" fill="#23A48B"/>
<path d="M170.054 170.841C170.095 171.151 170.074 171.377 170.013 171.542C169.931 171.707 169.787 171.79 169.582 171.831C169.378 171.872 169.214 171.81 169.091 171.666C168.968 171.522 168.886 171.315 168.845 171.027C168.804 170.738 168.824 170.491 168.886 170.326C168.968 170.161 169.111 170.078 169.316 170.037C169.521 169.996 169.685 170.058 169.808 170.202C169.931 170.346 170.013 170.552 170.054 170.841ZM169.214 170.965C169.255 171.171 169.296 171.336 169.337 171.419C169.378 171.501 169.459 171.542 169.541 171.522C169.623 171.501 169.685 171.46 169.705 171.357C169.726 171.254 169.726 171.109 169.705 170.882C169.685 170.656 169.623 170.511 169.582 170.429C169.521 170.346 169.459 170.305 169.378 170.326C169.296 170.346 169.234 170.388 169.214 170.491C169.193 170.594 169.214 170.738 169.214 170.965Z" fill="#23A48B"/>
<path d="M171.426 170.635C171.467 170.944 171.447 171.171 171.385 171.336C171.304 171.501 171.16 171.584 170.955 171.625C170.75 171.666 170.586 171.604 170.463 171.46C170.341 171.316 170.259 171.109 170.218 170.821C170.177 170.532 170.197 170.285 170.259 170.12C170.341 169.955 170.484 169.872 170.689 169.831C170.894 169.79 171.058 169.852 171.181 169.996C171.304 170.14 171.385 170.346 171.426 170.635ZM170.586 170.759C170.627 170.965 170.668 171.13 170.709 171.213C170.75 171.295 170.832 171.336 170.914 171.316C170.996 171.295 171.058 171.254 171.078 171.151C171.099 171.048 171.099 170.903 171.078 170.676C171.058 170.45 170.996 170.305 170.955 170.223C170.894 170.14 170.832 170.099 170.75 170.12C170.668 170.14 170.607 170.181 170.586 170.285C170.566 170.388 170.586 170.532 170.586 170.759Z" fill="#23A48B"/>
<path d="M172.369 169.604L171.98 171.439L171.652 171.481L172.041 169.645L172.369 169.604Z" fill="#23A48B"/>
<path d="M173.803 170.285C173.844 170.594 173.824 170.821 173.762 170.986C173.68 171.151 173.537 171.233 173.332 171.274C173.127 171.316 172.963 171.254 172.84 171.109C172.717 170.965 172.635 170.759 172.594 170.47C172.553 170.181 172.574 169.934 172.635 169.769C172.717 169.604 172.861 169.522 173.066 169.48C173.27 169.439 173.434 169.501 173.557 169.645C173.68 169.79 173.762 169.996 173.803 170.285ZM172.963 170.408C173.004 170.614 173.045 170.779 173.086 170.862C173.127 170.944 173.209 170.986 173.291 170.965C173.373 170.944 173.434 170.903 173.455 170.8C173.475 170.697 173.475 170.553 173.455 170.326C173.434 170.099 173.373 169.955 173.332 169.872C173.27 169.79 173.209 169.748 173.127 169.769C173.045 169.79 172.984 169.831 172.963 169.934C172.943 170.037 172.963 170.181 172.963 170.408Z" fill="#23A48B"/>
<path d="M175.176 170.078C175.217 170.388 175.196 170.614 175.135 170.779C175.053 170.944 174.91 171.027 174.705 171.068C174.5 171.109 174.336 171.047 174.213 170.903C174.09 170.759 174.008 170.553 173.967 170.264C173.926 169.975 173.947 169.728 174.008 169.563C174.09 169.398 174.233 169.315 174.438 169.274C174.643 169.233 174.807 169.295 174.93 169.439C175.053 169.583 175.135 169.79 175.176 170.078ZM174.336 170.202C174.377 170.408 174.418 170.573 174.459 170.656C174.5 170.738 174.582 170.779 174.664 170.759C174.746 170.738 174.807 170.697 174.828 170.594C174.848 170.491 174.848 170.346 174.828 170.12C174.807 169.893 174.746 169.748 174.705 169.666C174.643 169.583 174.582 169.542 174.5 169.563C174.418 169.583 174.356 169.625 174.336 169.728C174.315 169.831 174.336 169.975 174.336 170.202Z" fill="#23A48B"/>
<path d="M165.71 170.552H165.853L165.731 171.233H165.567L165.239 170.614H165.382L165.567 170.965L165.608 171.047V171.109C165.608 171.109 165.628 171.027 165.649 170.965L165.71 170.552V170.552Z" fill="#23A48B"/>
<path d="M166.448 171.13L166.366 170.986L166.12 171.027V171.192H165.935L166.079 170.511H166.243L166.57 171.13H166.427H166.448ZM166.325 170.882L166.222 170.656V170.614C166.222 170.614 166.181 170.759 166.161 170.924H166.325V170.882Z" fill="#23A48B"/>
<path d="M166.694 171.109L166.591 170.429H166.734L166.816 170.965L167.083 170.924V171.047L166.694 171.109V171.109Z" fill="#23A48B"/>
<path d="M167.206 171.027L167.103 170.346H167.247L167.349 171.006H167.206V171.027Z" fill="#23A48B"/>
<path d="M168.025 170.552C168.025 170.655 168.025 170.759 167.964 170.82C167.902 170.882 167.82 170.924 167.697 170.944H167.513L167.411 170.305L167.616 170.264C167.718 170.264 167.82 170.264 167.882 170.305C167.943 170.346 167.984 170.429 168.005 170.532L168.025 170.552ZM167.882 170.573C167.861 170.429 167.779 170.367 167.657 170.387H167.575L167.636 170.841H167.697C167.841 170.82 167.882 170.738 167.861 170.573H167.882Z" fill="#23A48B"/>
<path d="M165.853 172.367H165.71L165.628 171.831H165.444V171.749L165.935 171.666V171.79H165.771L165.853 172.367V172.367Z" fill="#23A48B"/>
<path d="M166.693 172.264H166.55L166.509 171.996L166.243 172.037L166.284 172.326H166.14L166.038 171.666H166.181L166.222 171.913L166.489 171.872L166.448 171.604H166.591L166.693 172.264V172.264Z" fill="#23A48B"/>
<path d="M166.96 171.955L167.001 172.223H166.857L166.755 171.563H166.96C166.96 171.563 167.124 171.522 167.165 171.563C167.206 171.583 167.247 171.645 167.247 171.707C167.247 171.748 167.247 171.79 167.247 171.81C167.247 171.851 167.206 171.872 167.165 171.893C167.288 172.037 167.37 172.12 167.411 172.161H167.247L167.042 171.955H166.96V171.955ZM166.96 171.851H167.001C167.001 171.851 167.083 171.831 167.103 171.81C167.103 171.81 167.124 171.769 167.124 171.728C167.124 171.686 167.124 171.666 167.083 171.666C167.062 171.666 167.021 171.666 166.98 171.666H166.939V171.851H166.96Z" fill="#23A48B"/>
<path d="M167.923 171.377L167.984 171.81C167.984 171.81 167.984 171.913 167.984 171.955C167.984 171.996 167.943 172.037 167.902 172.058C167.861 172.078 167.82 172.099 167.759 172.12C167.677 172.12 167.595 172.12 167.554 172.078C167.493 172.037 167.472 171.975 167.452 171.913L167.39 171.48H167.534L167.595 171.872C167.595 171.872 167.616 171.955 167.636 171.975C167.656 171.996 167.697 171.996 167.738 171.996C167.779 171.996 167.82 171.975 167.841 171.955C167.841 171.934 167.861 171.893 167.841 171.831L167.779 171.418H167.923V171.377Z" fill="#23A48B"/>
<path d="M183.822 173.543C185.044 173.543 186.035 172.546 186.035 171.316C186.035 170.086 185.044 169.088 183.822 169.088C182.6 169.088 181.609 170.086 181.609 171.316C181.609 172.546 182.6 173.543 183.822 173.543Z" fill="#23A48B"/>
<path d="M180.995 173.976C182.217 173.976 183.208 172.979 183.208 171.749C183.208 170.519 182.217 169.521 180.995 169.521C179.773 169.521 178.782 170.519 178.782 171.749C178.782 172.979 179.773 173.976 180.995 173.976Z" fill="#A8C2CB"/>
<path d="M161.796 92.2937C165.566 92.6237 168.373 95.7994 168.066 99.4288L162.903 160.489C162.596 164.098 159.297 166.779 155.527 166.449L131.493 164.387C127.723 164.057 124.916 160.881 125.223 157.252L130.387 96.1912C130.694 92.5824 133.993 89.9016 137.763 90.2316L161.796 92.2937V92.2937Z" fill="#CCD3D4"/>
<path d="M162.473 93.531C166.038 93.8403 167.247 96.7273 166.96 100.151L161.94 159.602C161.653 163.026 159.973 165.665 156.408 165.356L131.309 163.211C127.744 162.902 126.023 160.407 126.309 157.004L131.411 96.6861C131.698 93.2629 133.829 91.0977 137.373 91.407L162.473 93.5516V93.531Z" fill="white"/>
<path d="M132.534 99.9525L128.001 153.602L160.788 156.408L165.321 102.758L132.534 99.9525Z" fill="#093D5F"/>
<path d="M144.094 162.386C145.385 162.49 146.512 161.541 146.634 160.242C146.757 158.943 145.794 157.808 144.504 157.685C143.213 157.561 142.086 158.53 141.963 159.829C141.84 161.129 142.803 162.263 144.094 162.386Z" fill="#A8C2CB"/>
<path d="M155.752 97.9439C155.752 97.9439 155.896 97.8408 155.916 97.7171C155.916 97.5728 155.875 97.4696 155.793 97.4696L143.028 96.3767C143.028 96.3767 142.885 96.4798 142.865 96.6035C142.865 96.7479 142.905 96.851 142.987 96.851L155.752 97.9439Z" fill="#0C2D3A"/>
<path d="M163.139 104.966L134.068 102.478L129.978 150.888L159.05 153.376L163.139 104.966Z" fill="#CCD3D4"/>
<path d="M153.649 120.127L140.828 119.03L140.783 119.564L153.604 120.661L153.649 120.127Z" fill="white"/>
<path d="M153.516 121.719L140.695 120.622L140.65 121.156L153.471 122.253L153.516 121.719Z" fill="white"/>
<path d="M155.323 123.866L140.4 122.589L140.355 123.123L155.278 124.4L155.323 123.866Z" fill="white"/>
<path d="M140.261 124.148L140.216 124.682L151.547 125.652L151.592 125.118L140.261 124.148Z" fill="white"/>
<path d="M152.786 130.41L139.965 129.313L139.92 129.847L152.741 130.944L152.786 130.41Z" fill="white"/>
<path d="M152.633 132L139.812 130.903L139.767 131.438L152.588 132.535L152.633 132Z" fill="white"/>
<path d="M154.462 134.128L139.538 132.851L139.493 133.385L154.417 134.662L154.462 134.128Z" fill="white"/>
<path d="M139.394 134.441L139.349 134.975L150.679 135.945L150.724 135.41L139.394 134.441Z" fill="white"/>
<path d="M163.262 104.809L133.966 102.302L133.674 105.754L162.97 108.261L163.262 104.809Z" fill="#295863"/>
<path d="M148.315 108.956L147.556 110.729C147.556 110.729 147.434 110.791 147.413 110.729L146.962 108.853C146.962 108.853 146.921 108.791 146.901 108.791L144.196 108.564C144.196 108.564 144.114 108.585 144.114 108.626L143.889 111.348C143.889 111.348 143.909 111.431 143.95 111.431L145.856 111.596C145.856 111.596 145.938 111.575 145.938 111.534L145.979 111.101C145.979 111.101 145.958 111.018 145.917 111.018L144.667 110.915C144.667 110.915 144.586 110.874 144.606 110.833L144.647 110.358C144.647 110.358 144.688 110.276 144.729 110.296L145.59 110.379C145.59 110.379 145.671 110.358 145.671 110.317L145.712 109.925C145.712 109.925 145.692 109.843 145.651 109.843L144.79 109.76C144.79 109.76 144.708 109.719 144.729 109.678L144.77 109.265C144.77 109.265 144.811 109.183 144.852 109.203L146.409 109.327C146.409 109.327 146.471 109.348 146.471 109.389L147.085 111.657C147.085 111.657 147.126 111.719 147.147 111.719L147.72 111.761C147.72 111.761 147.782 111.761 147.802 111.719L149.032 109.08C149.032 109.08 149.032 108.977 148.97 108.977L148.437 108.935C148.437 108.935 148.376 108.935 148.356 108.977L148.315 108.956Z" fill="#0C2D3A"/>
<path d="M148.745 112.152C148.745 112.152 148.806 112.111 148.847 112.132C148.909 112.173 148.97 112.194 149.032 112.235C149.114 112.276 149.216 112.297 149.319 112.297C149.462 112.297 149.564 112.297 149.667 112.214C149.749 112.152 149.81 112.029 149.81 111.884C149.81 111.884 149.749 111.781 149.708 111.802C149.585 111.843 149.462 111.864 149.298 111.864C149.155 111.864 149.032 111.822 148.929 111.76C148.827 111.699 148.724 111.637 148.663 111.534C148.602 111.431 148.54 111.327 148.52 111.204C148.479 111.08 148.479 110.956 148.499 110.812C148.499 110.647 148.561 110.503 148.622 110.379C148.683 110.255 148.786 110.152 148.888 110.049C148.991 109.966 149.134 109.905 149.278 109.863C149.421 109.822 149.585 109.801 149.749 109.822C149.913 109.843 150.077 109.863 150.22 109.905C150.343 109.946 150.466 109.987 150.568 110.028C150.589 110.028 150.609 110.07 150.609 110.111L150.466 111.905C150.446 112.235 150.323 112.482 150.138 112.627C149.933 112.771 149.687 112.833 149.36 112.792C149.175 112.792 149.032 112.75 148.888 112.709C148.786 112.668 148.683 112.627 148.601 112.565C148.561 112.544 148.561 112.503 148.601 112.462L148.806 112.173L148.745 112.152ZM149.933 110.461C149.933 110.461 149.933 110.399 149.892 110.379H149.831C149.831 110.379 149.749 110.338 149.667 110.338C149.585 110.338 149.503 110.338 149.442 110.358C149.38 110.379 149.319 110.42 149.257 110.461C149.216 110.503 149.175 110.564 149.134 110.626C149.114 110.688 149.093 110.771 149.093 110.833C149.093 110.977 149.093 111.101 149.175 111.183C149.237 111.266 149.339 111.327 149.462 111.348C149.585 111.348 149.687 111.348 149.769 111.286C149.851 111.224 149.892 111.142 149.892 110.997L149.933 110.441V110.461Z" fill="#246A80"/>
<path d="M150.671 110.977C150.671 110.833 150.712 110.688 150.794 110.564C150.855 110.441 150.937 110.338 151.04 110.235C151.142 110.152 151.265 110.07 151.409 110.028C151.552 109.987 151.695 109.966 151.859 109.987C152.023 110.008 152.167 110.049 152.29 110.111C152.412 110.173 152.515 110.255 152.617 110.379C152.699 110.482 152.761 110.606 152.802 110.75C152.843 110.894 152.863 111.018 152.843 111.183C152.822 111.348 152.802 111.472 152.72 111.596C152.658 111.719 152.576 111.822 152.474 111.926C152.371 112.008 152.249 112.09 152.126 112.132C151.982 112.173 151.839 112.194 151.675 112.173C151.511 112.152 151.368 112.111 151.245 112.049C151.122 111.987 151.019 111.884 150.917 111.781C150.835 111.678 150.773 111.554 150.732 111.41C150.691 111.266 150.671 111.142 150.691 110.977H150.671ZM151.695 111.616C151.695 111.616 151.839 111.616 151.9 111.596C151.962 111.575 152.023 111.534 152.064 111.492C152.105 111.451 152.146 111.389 152.167 111.327C152.187 111.266 152.208 111.204 152.208 111.121C152.208 111.039 152.208 110.977 152.208 110.915C152.208 110.853 152.167 110.791 152.126 110.729C152.085 110.668 152.044 110.626 151.982 110.606C151.921 110.585 151.859 110.544 151.777 110.544C151.695 110.544 151.634 110.544 151.572 110.564C151.511 110.585 151.449 110.626 151.409 110.668C151.368 110.709 151.327 110.771 151.306 110.833C151.286 110.894 151.265 110.956 151.265 111.039C151.265 111.121 151.265 111.183 151.265 111.245C151.265 111.307 151.306 111.369 151.347 111.431C151.388 111.492 151.429 111.534 151.49 111.575C151.552 111.616 151.613 111.637 151.695 111.637V111.616Z" fill="#246A80"/>
<path d="M190.502 83.1789C192.96 84.2513 218.654 103.8 218.654 103.8L229.574 123.597C230.865 125.927 231.316 128.629 230.865 131.248C228.755 143.641 222.506 180.41 222.362 183.07C222.362 183.193 222.362 183.42 222.362 183.42L222.915 187.998C214.576 188.679 214.556 195.69 206.299 196.845C206.627 191.628 198.513 180.987 198.554 180.678C198.451 179.296 185.646 150.838 185.646 150.838C185.646 150.838 169.377 134.774 165.546 129.701C159.973 122.339 170.607 119.617 172.574 121.453C174.541 123.288 188.658 137.331 188.658 137.331L197.038 139.888L215.334 120.36L212.63 111.699C212.63 111.699 191.034 91.4894 189.334 89.8397C188.084 87.9631 188.33 83.4264 190.604 83.1377L190.502 83.1789Z" fill="#F7D0AD"/>
<path d="M164.876 68.2659L141.904 92.8348C141.579 93.1832 141.595 93.7313 141.941 94.0591L186.048 135.834C186.395 136.162 186.939 136.145 187.265 135.797L210.237 111.228C210.562 110.879 210.546 110.331 210.2 110.003L166.093 68.2287C165.746 67.9009 165.202 67.9176 164.876 68.2659Z" fill="#0C2D3A"/>
<path d="M173.803 106.564C179.622 107.657 185.502 108.502 191.403 109.1C197.017 109.657 202.57 109.884 208.204 109.966H207.262C207.999 109.966 208.716 110.007 209.454 110.09C209.782 110.214 210.11 110.337 210.458 110.44C210.54 110.729 210.458 111.038 210.253 111.265L187.285 135.846C186.957 136.197 186.424 136.217 186.076 135.887L148.417 100.212C156.756 102.79 165.239 104.955 173.803 106.564V106.564Z" fill="#256981"/>
<path d="M145.959 92.6556L186.455 131.01L187.789 129.584L147.293 91.2289L145.959 92.6556Z" fill="#CCD3D4"/>
<path d="M148.297 90.1568L188.793 128.511L189.453 127.806L148.957 89.451L148.297 90.1568Z" fill="#CCD3D4"/>
<path d="M166.652 80.3331C166.652 80.3331 166.673 80.4568 166.714 80.4981C166.755 80.5393 166.816 80.56 166.878 80.56C168.046 80.56 169.009 79.6114 169.009 78.4153C169.009 78.2916 168.906 78.1885 168.783 78.1885C168.66 78.1885 168.558 78.2916 168.558 78.4153C168.558 79.3433 167.8 80.0857 166.898 80.0857C166.775 80.0857 166.673 80.1888 166.673 80.3125L166.652 80.3331Z" fill="white"/>
<path d="M164.747 78.4153C164.747 78.4153 164.767 78.539 164.808 78.5803C164.849 78.6215 164.911 78.6421 164.972 78.6421C165.095 78.6421 165.198 78.539 165.198 78.4153C165.198 77.4873 165.956 76.7449 166.857 76.7449C166.98 76.7449 167.083 76.6418 167.083 76.5181C167.083 76.3944 166.98 76.2913 166.857 76.2913C165.689 76.2913 164.726 77.2399 164.726 78.4359L164.747 78.4153Z" fill="white"/>
<path d="M166.878 81.3642C166.755 81.3642 166.652 81.4673 166.652 81.591C166.652 81.6529 166.673 81.7148 166.714 81.756C166.755 81.7972 166.816 81.8179 166.878 81.8179C168.742 81.8179 170.258 80.2919 170.258 78.4153C170.258 78.2916 170.156 78.1885 170.033 78.1885C169.91 78.1885 169.808 78.2916 169.808 78.4153C169.808 80.0444 168.496 81.3642 166.878 81.3642V81.3642Z" fill="white"/>
<path d="M163.477 78.4153C163.477 78.4153 163.497 78.539 163.538 78.5802C163.579 78.6215 163.64 78.6421 163.702 78.6421C163.825 78.6421 163.927 78.539 163.927 78.4153C163.927 76.7861 165.239 75.4664 166.857 75.4664C166.98 75.4664 167.083 75.3633 167.083 75.2395C167.083 75.1158 166.98 75.0127 166.857 75.0127C164.993 75.0127 163.477 76.5387 163.477 78.4153V78.4153Z" fill="white"/>
<path d="M166.878 82.5809C166.755 82.5809 166.652 82.684 166.652 82.8077C166.652 82.8696 166.673 82.9314 166.714 82.9727C166.755 83.0139 166.816 83.0345 166.878 83.0345C169.398 83.0345 171.467 80.9724 171.467 78.4153C171.467 78.2916 171.365 78.1885 171.242 78.1885C171.119 78.1885 171.017 78.2916 171.017 78.4153C171.017 80.7043 169.152 82.5809 166.878 82.5809V82.5809Z" fill="white"/>
<path d="M162.35 78.5803C162.35 78.5803 162.452 78.6422 162.513 78.6422C162.636 78.6422 162.739 78.5391 162.739 78.4154C162.739 76.1264 164.603 74.2498 166.878 74.2498C167.001 74.2498 167.103 74.1467 167.103 74.023C167.103 73.8993 167.001 73.7961 166.878 73.7961C164.357 73.7961 162.288 75.8583 162.288 78.4154C162.288 78.4772 162.309 78.5391 162.35 78.5803V78.5803Z" fill="white"/>
<path d="M167.529 79.0737C167.889 78.7113 167.889 78.1237 167.529 77.7613C167.169 77.3989 166.585 77.3989 166.225 77.7613C165.865 78.1237 165.865 78.7113 166.225 79.0737C166.585 79.436 167.169 79.436 167.529 79.0737Z" fill="white"/>
<path d="M198.329 104.831L195.296 106.337C195.173 106.399 195.071 106.275 195.112 106.151L196.648 103.12C196.648 103.12 196.648 103.017 196.628 102.975L193.268 99.5316C193.268 99.5316 193.124 99.4698 193.083 99.5316L189.682 102.893C189.682 102.893 189.621 103.037 189.682 103.079L192.018 105.491C192.018 105.491 192.161 105.553 192.202 105.491L192.735 104.976C192.735 104.976 192.796 104.831 192.735 104.79L191.198 103.202C191.198 103.202 191.157 103.058 191.198 103.017L191.792 102.439C191.792 102.439 191.936 102.398 191.977 102.439L193.042 103.532C193.042 103.532 193.186 103.594 193.227 103.532L193.739 103.037C193.739 103.037 193.8 102.893 193.739 102.852L192.674 101.759C192.674 101.759 192.633 101.614 192.674 101.573L193.186 101.058C193.186 101.058 193.329 101.016 193.37 101.058L195.296 103.037C195.296 103.037 195.337 103.14 195.317 103.182L193.555 106.935C193.555 106.935 193.555 107.038 193.575 107.079L194.292 107.801C194.292 107.801 194.395 107.842 194.436 107.822L199.066 105.718C199.066 105.718 199.169 105.574 199.107 105.512L198.451 104.852C198.451 104.852 198.349 104.811 198.308 104.831H198.329Z" fill="white"/>
<path d="M195.276 109.616C195.276 109.616 195.419 109.616 195.44 109.698C195.481 109.822 195.522 109.925 195.583 110.049C195.665 110.193 195.767 110.337 195.89 110.482C196.054 110.667 196.239 110.75 196.444 110.77C196.628 110.77 196.833 110.688 197.017 110.502C197.017 110.502 197.058 110.317 196.956 110.275C196.751 110.214 196.546 110.069 196.341 109.884C196.157 109.698 196.034 109.512 195.952 109.306C195.87 109.1 195.829 108.894 195.849 108.688C195.87 108.481 195.911 108.275 196.013 108.09C196.116 107.883 196.239 107.698 196.423 107.533C196.628 107.327 196.853 107.182 197.079 107.079C197.304 106.976 197.55 106.935 197.796 106.955C198.042 106.955 198.288 107.017 198.533 107.141C198.779 107.265 199.005 107.43 199.21 107.636C199.415 107.842 199.599 108.069 199.742 108.296C199.865 108.481 199.988 108.667 200.07 108.853C200.091 108.894 200.07 108.956 200.05 108.997L197.796 111.224C197.386 111.636 196.956 111.822 196.526 111.781C196.095 111.74 195.685 111.533 195.296 111.121C195.071 110.894 194.907 110.667 194.784 110.461C194.682 110.296 194.62 110.11 194.559 109.925C194.559 109.863 194.579 109.781 194.661 109.76L195.276 109.595V109.616ZM198.779 108.749C198.779 108.749 198.841 108.646 198.8 108.584C198.8 108.543 198.759 108.523 198.738 108.481C198.697 108.419 198.636 108.358 198.554 108.275C198.452 108.172 198.329 108.09 198.206 108.028C198.083 107.986 197.96 107.966 197.857 107.966C197.734 107.966 197.632 108.007 197.509 108.069C197.407 108.131 197.304 108.193 197.202 108.296C197.017 108.481 196.915 108.667 196.894 108.853C196.874 109.038 196.935 109.224 197.12 109.409C197.284 109.574 197.427 109.657 197.591 109.657C197.755 109.657 197.919 109.595 198.083 109.43L198.779 108.749V108.749Z" fill="white"/>
<path d="M199.189 110.255C199.374 110.069 199.578 109.925 199.804 109.842C200.029 109.739 200.275 109.698 200.5 109.698C200.746 109.698 200.972 109.739 201.218 109.842C201.443 109.945 201.668 110.09 201.873 110.296C202.078 110.502 202.222 110.708 202.303 110.956C202.385 111.183 202.447 111.43 202.426 111.678C202.426 111.925 202.365 112.152 202.263 112.379C202.16 112.606 202.017 112.812 201.832 112.997C201.648 113.183 201.443 113.327 201.218 113.41C200.992 113.513 200.746 113.554 200.521 113.554C200.275 113.554 200.05 113.513 199.804 113.41C199.578 113.307 199.353 113.162 199.148 112.956C198.943 112.75 198.8 112.523 198.718 112.296C198.615 112.049 198.574 111.822 198.595 111.575C198.595 111.327 198.656 111.1 198.759 110.873C198.861 110.647 199.005 110.44 199.189 110.255ZM199.845 112.296C199.845 112.296 200.05 112.461 200.152 112.503C200.255 112.544 200.378 112.564 200.5 112.544C200.623 112.544 200.726 112.503 200.828 112.441C200.931 112.379 201.033 112.317 201.115 112.234C201.197 112.152 201.279 112.049 201.32 111.946C201.381 111.843 201.402 111.74 201.422 111.616C201.422 111.492 201.422 111.389 201.381 111.265C201.34 111.142 201.279 111.038 201.177 110.956C201.074 110.873 200.972 110.791 200.869 110.75C200.746 110.708 200.644 110.688 200.521 110.708C200.418 110.708 200.296 110.75 200.193 110.812C200.091 110.873 199.988 110.935 199.906 111.018C199.824 111.1 199.742 111.203 199.701 111.306C199.64 111.41 199.619 111.533 199.599 111.636C199.599 111.76 199.599 111.863 199.64 111.987C199.681 112.111 199.742 112.214 199.845 112.296Z" fill="white"/>
</g>
<defs>
<linearGradient id="paint0_linear_7975_21841" x1="36" y1="122" x2="136" y2="122" gradientUnits="userSpaceOnUse">
<stop stop-color="#E2E8F0"/>
<stop offset="1" stop-color="#E2E8F0" stop-opacity="0"/>
</linearGradient>
<clipPath id="clip0_7975_21841">
<rect width="124" height="142" fill="white" transform="translate(110 58)"/>
</clipPath>
</defs>
</svg>
