<svg width="296" height="258" viewBox="0 0 296 258" fill="none" xmlns="http://www.w3.org/2000/svg">
<path d="M89.5489 168.992C81.1383 168.992 73.0043 167.885 65.1469 165.672C57.2896 163.459 51.0923 160.526 46.5549 156.874L57.1789 130.48C61.8269 133.579 66.8069 135.958 72.1189 137.618C77.4309 139.167 82.7983 139.942 88.2209 139.942C93.4223 139.942 97.2403 139.167 99.6749 137.618C102.22 136.069 103.493 133.745 103.493 130.646C103.493 127.658 102.442 125.5 100.339 124.172C98.2363 122.844 95.0823 122.18 90.8769 122.18H69.4629V94.292H87.3909C91.2643 94.292 94.3076 93.5727 96.5209 92.134C98.7343 90.6953 99.8409 88.5927 99.8409 85.826C99.8409 82.9487 98.7343 80.7907 96.5209 79.352C94.3076 77.8027 91.0429 77.028 86.7269 77.028C76.7669 77.028 67.5816 80.1267 59.1709 86.324L48.3809 60.428C53.5823 56.5547 59.8903 53.5113 67.3049 51.298C74.7196 49.0847 82.4109 47.978 90.3789 47.978C103.991 47.978 114.615 50.9107 122.251 56.776C129.887 62.5307 133.705 70.6093 133.705 81.012C133.705 87.5413 131.824 93.1853 128.061 97.944C124.409 102.703 119.318 105.857 112.789 107.406V104.916C120.425 106.133 126.401 109.343 130.717 114.544C135.144 119.745 137.357 126.275 137.357 134.132C137.357 144.977 133.096 153.499 124.575 159.696C116.054 165.893 104.378 168.992 89.5489 168.992Z" fill="url(#paint0_linear_7975_21841)"/>
<path d="M105.886 133.418C104.689 149.083 108.914 164.661 114.95 175.911C121.24 187.333 129.36 194.436 141.565 197.571C166.472 203.637 209.501 181.514 227.649 153.929C237.21 139.421 233.782 123.977 222.031 111.938C210.435 99.7536 190.535 90.9384 170.81 86.456C150.314 81.7128 132.495 85.9816 121.872 95.1223C110.881 104.284 107.078 118.29 105.876 133.435L105.886 133.418Z" fill="#23A48B"/>
<path d="M219.334 130.017C219.334 130.017 213.844 123.249 213.844 140.412C213.844 151.269 211.007 151.632 203.127 151.632" stroke="#256981" stroke-width="0.47" stroke-miterlimit="10"/>
<path d="M232.664 170.709H219.151V175.221H232.664V170.709Z" fill="#E1E5E5"/>
<path d="M233.697 173.388H218.159V175.201H233.697V173.388Z" fill="#CCD3D4"/>
<path d="M218.665 126.411V172.119H233.191V120.57H218.665V126.391V126.411Z" fill="#CCD3D4"/>
<path d="M225.148 148.087H221.319V150.242H225.148V148.087Z" fill="#0C2D3A"/>
<path d="M222.251 143.332H222.676V143.413H222.352V143.614H222.595V143.695H222.352V143.997H222.251V143.312V143.332Z" fill="#0C2D3A"/>
<path d="M222.94 143.333H223.041L223.305 144.017H223.203L223.142 143.836H222.859L222.798 144.017H222.697L222.96 143.333H222.94ZM223.102 143.735L223.001 143.433L222.879 143.735H223.102Z" fill="#0C2D3A"/>
<path d="M223.406 143.856L223.446 143.896C223.446 143.896 223.467 143.917 223.487 143.917C223.487 143.917 223.527 143.917 223.527 143.937C223.527 143.957 223.568 143.937 223.588 143.937C223.629 143.937 223.669 143.937 223.689 143.896C223.71 143.856 223.73 143.856 223.73 143.816C223.73 143.776 223.73 143.755 223.689 143.735C223.669 143.735 223.629 143.695 223.568 143.695C223.548 143.695 223.507 143.695 223.487 143.675C223.467 143.675 223.446 143.655 223.426 143.635C223.426 143.635 223.385 143.594 223.385 143.574C223.385 143.554 223.385 143.534 223.385 143.494C223.385 143.473 223.385 143.453 223.385 143.413C223.385 143.373 223.406 143.373 223.426 143.353C223.426 143.353 223.467 143.312 223.507 143.312C223.527 143.312 223.568 143.312 223.608 143.312C223.649 143.312 223.669 143.312 223.689 143.312C223.71 143.312 223.73 143.312 223.75 143.332C223.75 143.332 223.791 143.353 223.791 143.373H223.811L223.75 143.453L223.71 143.413C223.71 143.413 223.689 143.413 223.669 143.413C223.669 143.413 223.629 143.413 223.608 143.413C223.588 143.413 223.568 143.413 223.548 143.413C223.548 143.413 223.527 143.413 223.507 143.433C223.487 143.453 223.507 143.433 223.487 143.473C223.487 143.473 223.487 143.494 223.487 143.514V143.554C223.487 143.554 223.487 143.574 223.527 143.594C223.527 143.594 223.568 143.594 223.588 143.614H223.649C223.649 143.614 223.689 143.655 223.73 143.655C223.75 143.655 223.77 143.675 223.791 143.695C223.791 143.695 223.831 143.735 223.831 143.755C223.831 143.776 223.831 143.816 223.831 143.836C223.831 143.856 223.831 143.896 223.831 143.917C223.831 143.937 223.811 143.957 223.77 143.977C223.73 143.997 223.73 144.017 223.689 144.017C223.649 144.017 223.629 144.017 223.588 144.017C223.548 144.017 223.527 144.017 223.507 144.017C223.487 144.017 223.467 144.017 223.426 143.997C223.406 143.997 223.385 143.977 223.365 143.957C223.365 143.957 223.345 143.937 223.325 143.917L223.385 143.856H223.406Z" fill="#0C2D3A"/>
<path d="M224.135 143.433H223.892V143.353H224.479V143.433H224.236V144.018H224.135V143.433V143.433Z" fill="#0C2D3A"/>
<path d="M225.35 143.897C225.35 143.897 225.35 143.917 225.31 143.937C225.31 143.937 225.269 143.977 225.249 143.977C225.229 143.977 225.209 143.997 225.168 144.017C225.148 144.017 225.107 144.017 225.067 144.017C225.026 144.017 224.966 144.017 224.925 143.997C224.884 143.997 224.844 143.957 224.824 143.917C224.803 143.876 224.763 143.856 224.763 143.796C224.763 143.756 224.743 143.715 224.743 143.655C224.743 143.594 224.743 143.554 224.763 143.514C224.763 143.474 224.803 143.433 224.824 143.393C224.844 143.353 224.884 143.333 224.925 143.312C224.966 143.312 225.006 143.292 225.067 143.292C225.107 143.292 225.128 143.292 225.168 143.292C225.188 143.292 225.229 143.292 225.249 143.333C225.269 143.333 225.29 143.353 225.31 143.373C225.33 143.393 225.33 143.413 225.35 143.413L225.29 143.474V143.433C225.29 143.433 225.229 143.413 225.229 143.393C225.229 143.393 225.188 143.393 225.168 143.373C225.148 143.373 225.128 143.373 225.107 143.373C225.067 143.373 225.026 143.373 225.006 143.393C224.986 143.413 224.945 143.433 224.925 143.453C224.905 143.474 224.884 143.514 224.884 143.534C224.884 143.574 224.884 143.594 224.884 143.635C224.884 143.675 224.884 143.715 224.884 143.735C224.884 143.756 224.905 143.796 224.925 143.816C224.945 143.836 224.966 143.856 225.006 143.876C225.026 143.876 225.067 143.897 225.107 143.897C225.148 143.897 225.168 143.897 225.188 143.897C225.209 143.897 225.229 143.897 225.249 143.876C225.249 143.876 225.269 143.856 225.29 143.836H225.391L225.35 143.897Z" fill="#0C2D3A"/>
<path d="M225.452 143.333H225.553V143.615H225.918V143.333H226.019V144.017H225.918V143.715H225.553V144.017H225.452V143.333Z" fill="#0C2D3A"/>
<path d="M226.384 143.333H226.485L226.748 144.017H226.647L226.586 143.836H226.303L226.242 144.017H226.141L226.404 143.333H226.384ZM226.546 143.735L226.445 143.433L226.323 143.735H226.546Z" fill="#0C2D3A"/>
<path d="M226.85 143.332H227.072C227.072 143.332 227.153 143.332 227.174 143.332C227.194 143.332 227.235 143.353 227.255 143.373C227.255 143.373 227.295 143.413 227.295 143.433C227.295 143.453 227.295 143.473 227.295 143.514C227.295 143.554 227.295 143.594 227.255 143.635C227.214 143.675 227.194 143.695 227.153 143.715L227.316 143.997H227.214L227.072 143.715H226.931V143.997H226.829V143.312L226.85 143.332ZM227.072 143.655C227.072 143.655 227.153 143.655 227.174 143.614C227.194 143.594 227.214 143.574 227.214 143.534C227.214 143.494 227.214 143.473 227.174 143.453C227.153 143.433 227.113 143.413 227.072 143.413H226.951V143.655H227.072V143.655Z" fill="#0C2D3A"/>
<path d="M227.802 143.675H228.045V143.937L228.004 143.977C228.004 143.977 227.964 143.997 227.943 143.997C227.923 143.997 227.903 143.997 227.862 144.017C227.842 144.017 227.802 144.017 227.761 144.017C227.7 144.017 227.66 144.017 227.619 143.997C227.579 143.997 227.538 143.957 227.518 143.917C227.478 143.876 227.457 143.856 227.457 143.796C227.457 143.756 227.437 143.715 227.437 143.655C227.437 143.594 227.437 143.554 227.457 143.514C227.457 143.474 227.498 143.433 227.518 143.393C227.538 143.353 227.579 143.333 227.619 143.312C227.66 143.312 227.7 143.292 227.761 143.292C227.802 143.292 227.822 143.292 227.862 143.292C227.903 143.292 227.923 143.292 227.943 143.333C227.964 143.333 227.984 143.353 228.004 143.373L228.045 143.413L227.984 143.474V143.433C227.984 143.433 227.923 143.413 227.923 143.393C227.923 143.393 227.883 143.393 227.862 143.373C227.862 143.373 227.822 143.373 227.802 143.373C227.761 143.373 227.721 143.373 227.7 143.393C227.68 143.393 227.64 143.433 227.619 143.453C227.599 143.474 227.579 143.514 227.579 143.534C227.579 143.554 227.579 143.594 227.579 143.635C227.579 143.675 227.579 143.715 227.579 143.735C227.579 143.776 227.599 143.796 227.64 143.816C227.66 143.836 227.68 143.856 227.721 143.876C227.741 143.876 227.781 143.876 227.822 143.876C227.862 143.876 227.903 143.876 227.923 143.876C227.943 143.876 227.984 143.856 228.004 143.836V143.695H227.862V143.615L227.802 143.675Z" fill="#0C2D3A"/>
<path d="M228.187 143.333H228.288V144.017H228.187V143.333Z" fill="#0C2D3A"/>
<path d="M228.45 143.333H228.551L228.916 143.856V143.333H229.017V144.017H228.916L228.551 143.494V144.017H228.45V143.333Z" fill="#0C2D3A"/>
<path d="M229.524 143.675H229.767V143.937L229.726 143.977C229.726 143.977 229.686 143.997 229.666 143.997C229.645 143.997 229.625 143.997 229.585 144.017C229.564 144.017 229.524 144.017 229.483 144.017C229.423 144.017 229.382 144.017 229.342 143.997C229.301 143.997 229.26 143.957 229.24 143.917C229.2 143.876 229.179 143.856 229.179 143.796C229.179 143.756 229.159 143.715 229.159 143.655C229.159 143.594 229.159 143.554 229.179 143.514C229.179 143.474 229.22 143.433 229.24 143.393C229.26 143.353 229.301 143.333 229.342 143.312C229.382 143.312 229.423 143.292 229.483 143.292C229.524 143.292 229.544 143.292 229.585 143.292C229.625 143.292 229.645 143.292 229.666 143.333C229.686 143.333 229.706 143.353 229.726 143.373L229.767 143.413L229.706 143.474V143.433C229.706 143.433 229.645 143.413 229.645 143.393C229.645 143.393 229.605 143.393 229.585 143.373C229.585 143.373 229.544 143.373 229.524 143.373C229.483 143.373 229.443 143.373 229.423 143.393C229.402 143.393 229.362 143.433 229.342 143.453C229.321 143.474 229.301 143.514 229.301 143.534C229.301 143.554 229.301 143.594 229.301 143.635C229.301 143.675 229.301 143.715 229.301 143.735C229.301 143.776 229.321 143.796 229.362 143.816C229.382 143.836 229.402 143.856 229.443 143.876C229.463 143.876 229.504 143.876 229.544 143.876C229.585 143.876 229.625 143.876 229.645 143.876C229.666 143.876 229.706 143.856 229.726 143.836V143.695H229.585V143.615L229.524 143.675Z" fill="#0C2D3A"/>
<path d="M225.816 139.888L225.31 141.419C225.31 141.419 225.209 141.479 225.188 141.419L224.682 139.888C224.682 139.888 224.641 139.848 224.621 139.848H222.332C222.332 139.848 222.271 139.868 222.271 139.908V142.184C222.271 142.184 222.291 142.245 222.332 142.245H223.932C223.932 142.245 223.993 142.225 223.993 142.184V141.822C223.993 141.822 223.973 141.761 223.932 141.761H222.879C222.879 141.761 222.818 141.741 222.818 141.701V141.298C222.818 141.298 222.838 141.238 222.879 141.238H223.608C223.608 141.238 223.669 141.217 223.669 141.177V140.835C223.669 140.835 223.649 140.774 223.608 140.774H222.879C222.879 140.774 222.818 140.754 222.818 140.714V140.371C222.818 140.371 222.838 140.311 222.879 140.311H224.196C224.196 140.311 224.236 140.311 224.257 140.351L224.945 142.205C224.945 142.205 224.986 142.245 225.006 142.245H225.492C225.492 142.245 225.533 142.245 225.553 142.205L226.384 139.928C226.384 139.928 226.384 139.848 226.323 139.848H225.877C225.877 139.848 225.816 139.848 225.816 139.888V139.888Z" fill="#0C2D3A"/>
<path d="M226.404 142.527C226.404 142.527 226.465 142.487 226.485 142.507C226.546 142.527 226.586 142.547 226.647 142.567C226.728 142.587 226.809 142.607 226.89 142.607C227.012 142.607 227.093 142.567 227.174 142.507C227.235 142.446 227.275 142.346 227.275 142.225C227.275 142.225 227.214 142.144 227.174 142.164C227.072 142.225 226.971 142.245 226.829 142.245C226.708 142.245 226.607 142.245 226.505 142.184C226.404 142.144 226.323 142.084 226.262 142.023C226.201 141.963 226.141 141.862 226.12 141.761C226.08 141.661 226.06 141.56 226.06 141.439C226.06 141.298 226.08 141.177 226.12 141.076C226.161 140.976 226.242 140.875 226.323 140.794C226.404 140.714 226.505 140.653 226.627 140.613C226.748 140.573 226.87 140.553 227.032 140.553C227.194 140.553 227.295 140.553 227.437 140.593C227.538 140.613 227.64 140.633 227.741 140.674C227.761 140.674 227.782 140.714 227.782 140.734V142.225C227.782 142.507 227.701 142.708 227.559 142.849C227.397 142.99 227.194 143.051 226.931 143.051C226.769 143.051 226.647 143.051 226.526 143.01C226.424 142.99 226.343 142.95 226.262 142.91C226.222 142.91 226.222 142.849 226.242 142.829L226.384 142.567L226.404 142.527ZM227.295 141.036C227.295 141.036 227.295 140.976 227.255 140.976H227.194C227.194 140.976 227.113 140.956 227.052 140.956C226.971 140.956 226.91 140.956 226.85 140.996C226.789 141.016 226.748 141.056 226.708 141.097C226.667 141.137 226.647 141.197 226.627 141.238C226.627 141.298 226.607 141.359 226.607 141.419C226.607 141.54 226.627 141.641 226.688 141.701C226.748 141.782 226.829 141.802 226.951 141.802C227.052 141.802 227.133 141.782 227.194 141.721C227.255 141.661 227.275 141.58 227.275 141.479V141.016L227.295 141.036Z" fill="#256981"/>
<path d="M227.944 141.399C227.944 141.278 227.964 141.157 228.004 141.056C228.045 140.956 228.106 140.855 228.187 140.774C228.268 140.694 228.369 140.633 228.47 140.573C228.592 140.533 228.713 140.512 228.835 140.512C228.957 140.512 229.098 140.533 229.2 140.573C229.301 140.613 229.402 140.694 229.483 140.774C229.564 140.855 229.625 140.956 229.666 141.056C229.706 141.157 229.726 141.278 229.726 141.399C229.726 141.52 229.706 141.641 229.666 141.741C229.625 141.842 229.564 141.943 229.483 142.023C229.402 142.104 229.301 142.164 229.2 142.225C229.098 142.265 228.957 142.305 228.835 142.305C228.713 142.305 228.572 142.285 228.47 142.225C228.349 142.184 228.268 142.104 228.187 142.023C228.106 141.943 228.045 141.842 228.004 141.741C227.964 141.641 227.944 141.52 227.944 141.399ZM228.855 141.862C228.855 141.862 228.977 141.862 229.038 141.822C229.098 141.782 229.139 141.761 229.159 141.721C229.2 141.681 229.22 141.62 229.24 141.58C229.24 141.52 229.26 141.479 229.26 141.419C229.26 141.359 229.26 141.298 229.24 141.258C229.24 141.197 229.2 141.157 229.159 141.117C229.119 141.076 229.078 141.036 229.038 141.016C228.997 140.996 228.936 140.976 228.855 140.976C228.774 140.976 228.734 140.976 228.673 141.016C228.612 141.036 228.572 141.076 228.551 141.117C228.511 141.157 228.491 141.197 228.47 141.258C228.47 141.318 228.45 141.359 228.45 141.419C228.45 141.479 228.45 141.54 228.47 141.58C228.47 141.641 228.511 141.681 228.551 141.721C228.592 141.761 228.632 141.802 228.673 141.822C228.734 141.842 228.774 141.862 228.855 141.862Z" fill="#256981"/>
<path d="M229.544 140.613C229.544 140.613 229.544 140.593 229.544 140.573C229.544 140.573 229.544 140.553 229.564 140.533C229.564 140.533 229.584 140.533 229.605 140.512C229.605 140.512 229.625 140.512 229.645 140.512C229.665 140.512 229.665 140.512 229.686 140.512C229.706 140.512 229.706 140.512 229.726 140.533C229.726 140.533 229.726 140.553 229.746 140.573C229.746 140.573 229.746 140.593 229.746 140.613C229.746 140.633 229.746 140.633 229.746 140.653C229.746 140.653 229.747 140.674 229.726 140.694C229.726 140.694 229.706 140.694 229.686 140.714C229.686 140.714 229.665 140.714 229.645 140.714C229.625 140.714 229.625 140.714 229.605 140.714C229.605 140.714 229.584 140.714 229.564 140.694C229.564 140.694 229.564 140.674 229.544 140.653C229.524 140.633 229.544 140.633 229.544 140.613ZM229.645 140.714C229.645 140.714 229.665 140.714 229.686 140.714H229.706V140.674C229.706 140.674 229.726 140.653 229.726 140.633C229.726 140.613 229.726 140.613 229.726 140.593V140.553H229.665C229.665 140.553 229.645 140.553 229.625 140.553H229.605V140.593C229.605 140.593 229.584 140.613 229.584 140.633C229.584 140.653 229.584 140.653 229.584 140.674V140.714H229.645ZM229.605 140.573H229.645H229.665V140.613H229.645V140.674V140.633H229.605V140.674V140.573V140.573ZM229.645 140.633H229.665C229.665 140.633 229.665 140.593 229.645 140.593H229.625V140.633H229.645Z" fill="#256981"/>
<path d="M231.408 151.451H220.428V159.186H231.408V151.451Z" fill="#E1E5E5"/>
<path d="M229.625 152.337H227.842C227.63 152.337 227.457 152.509 227.457 152.72V157.776C227.457 157.988 227.63 158.159 227.842 158.159H229.625C229.838 158.159 230.01 157.988 230.01 157.776V152.72C230.01 152.509 229.838 152.337 229.625 152.337Z" fill="#0C2D3A"/>
<path d="M223.993 152.337H222.21C221.998 152.337 221.825 152.509 221.825 152.72V157.776C221.825 157.988 221.998 158.159 222.21 158.159H223.993C224.206 158.159 224.378 157.988 224.378 157.776V152.72C224.378 152.509 224.206 152.337 223.993 152.337Z" fill="#0C2D3A"/>
<path d="M231.874 167.566C230.131 167.566 228.247 166.761 228.247 164.988V155.319H229.058V164.988C229.058 166.217 230.516 166.761 231.894 166.761C233.271 166.761 234.73 166.197 234.73 164.988V133.341C234.73 132.616 234.507 132.032 234.061 131.609C233.109 130.722 231.448 130.823 231.448 130.823L231.387 130.017C231.387 130.017 233.413 129.896 234.608 131.004C235.216 131.568 235.54 132.354 235.54 133.321V164.968C235.54 166.74 233.656 167.546 231.914 167.546L231.874 167.566Z" fill="#256981"/>
<path d="M218.665 121.98V132.979H233.191V120.59H218.665V122V121.98Z" fill="#CCD3D4"/>
<path d="M231.408 126.109H220.428V137.813H231.408V126.109Z" fill="#E1E5E5"/>
<path d="M230.314 126.955H221.521V136.967H230.314V126.955Z" fill="#A8C2CB"/>
<path d="M216.234 133.724C216.234 133.724 210.623 134.147 211.413 152.096C212.203 170.044 205.821 167.164 200.392 167.164" stroke="#256981" stroke-width="0.49" stroke-miterlimit="10"/>
<path d="M230.212 176.329H216.052V181.043H230.212V176.329Z" fill="#E1E5E5"/>
<path d="M231.266 179.15H214.998V181.043H231.266V179.15Z" fill="#CCD3D4"/>
<path d="M215.525 129.957V177.8H230.719V123.833H215.525V129.937V129.957Z" fill="#CCD3D4"/>
<path d="M222.332 152.66H218.321V154.916H222.332V152.66Z" fill="#0C2D3A"/>
<path d="M219.293 147.684H219.739V147.785H219.395V148.006H219.658V148.107H219.395V148.409H219.293V147.704V147.684Z" fill="#0C2D3A"/>
<path d="M220.023 147.684H220.124L220.408 148.389H220.286L220.205 148.188H219.901L219.82 148.389H219.719L220.002 147.684H220.023ZM220.185 148.107L220.063 147.785L219.942 148.107H220.164H220.185Z" fill="#0C2D3A"/>
<path d="M220.509 148.208L220.549 148.248C220.549 148.248 220.57 148.268 220.59 148.288C220.59 148.288 220.63 148.288 220.651 148.309C220.671 148.329 220.691 148.309 220.711 148.309C220.752 148.309 220.792 148.309 220.813 148.268C220.833 148.228 220.853 148.228 220.853 148.188C220.853 148.147 220.853 148.127 220.813 148.107C220.792 148.107 220.732 148.067 220.691 148.067C220.651 148.067 220.63 148.067 220.61 148.047C220.59 148.047 220.57 148.027 220.549 148.006C220.549 148.006 220.509 147.966 220.509 147.946C220.509 147.926 220.509 147.906 220.509 147.865C220.509 147.845 220.509 147.805 220.509 147.785C220.509 147.765 220.529 147.745 220.549 147.724C220.549 147.724 220.59 147.684 220.63 147.684C220.651 147.684 220.691 147.684 220.732 147.684C220.772 147.684 220.792 147.684 220.813 147.684C220.833 147.684 220.853 147.684 220.873 147.704C220.873 147.704 220.914 147.724 220.914 147.745H220.934L220.873 147.825L220.833 147.785C220.833 147.785 220.813 147.785 220.792 147.785C220.792 147.785 220.752 147.785 220.732 147.785C220.711 147.785 220.691 147.785 220.671 147.785C220.671 147.785 220.651 147.785 220.63 147.805C220.61 147.825 220.63 147.825 220.61 147.845C220.61 147.845 220.61 147.865 220.61 147.886V147.926C220.61 147.926 220.61 147.946 220.651 147.966C220.651 147.966 220.691 147.966 220.711 147.986H220.792C220.792 147.986 220.853 148.027 220.873 148.027C220.894 148.027 220.914 148.047 220.934 148.067C220.934 148.067 220.975 148.107 220.975 148.127C220.975 148.147 220.975 148.188 220.975 148.228C220.975 148.268 220.975 148.288 220.975 148.309C220.975 148.329 220.934 148.349 220.914 148.369C220.894 148.389 220.873 148.409 220.833 148.409C220.792 148.409 220.772 148.409 220.732 148.409C220.691 148.409 220.671 148.409 220.63 148.409C220.61 148.409 220.57 148.409 220.549 148.389C220.529 148.389 220.509 148.369 220.489 148.349C220.489 148.349 220.448 148.329 220.448 148.309L220.529 148.248L220.509 148.208Z" fill="#0C2D3A"/>
<path d="M221.278 147.765H221.015V147.684H221.623V147.765H221.36V148.389H221.258V147.765H221.278Z" fill="#0C2D3A"/>
<path d="M222.534 148.268C222.534 148.268 222.534 148.288 222.494 148.308C222.494 148.308 222.453 148.349 222.433 148.349C222.413 148.349 222.372 148.369 222.352 148.389C222.312 148.389 222.291 148.389 222.251 148.389C222.19 148.389 222.15 148.389 222.109 148.369C222.069 148.369 222.028 148.329 221.988 148.288C221.947 148.248 221.927 148.208 221.906 148.167C221.906 148.127 221.886 148.067 221.886 148.026C221.886 147.986 221.886 147.926 221.906 147.885C221.906 147.845 221.947 147.805 221.988 147.765C222.028 147.724 222.048 147.704 222.109 147.684C222.15 147.684 222.21 147.664 222.251 147.664C222.291 147.664 222.332 147.664 222.352 147.664C222.372 147.664 222.413 147.684 222.433 147.704C222.453 147.704 222.474 147.724 222.494 147.744C222.514 147.765 222.514 147.785 222.534 147.785L222.453 147.845L222.413 147.805C222.413 147.805 222.393 147.785 222.372 147.765C222.372 147.765 222.332 147.765 222.312 147.744C222.291 147.744 222.271 147.744 222.231 147.744C222.19 147.744 222.15 147.744 222.129 147.765C222.109 147.785 222.069 147.805 222.048 147.825C222.028 147.845 222.008 147.885 222.008 147.906C222.008 147.946 222.008 147.966 222.008 148.006C222.008 148.047 222.008 148.087 222.008 148.107C222.008 148.127 222.028 148.167 222.048 148.188C222.069 148.208 222.089 148.228 222.129 148.248C222.17 148.248 222.19 148.268 222.231 148.268C222.271 148.268 222.291 148.268 222.312 148.268C222.332 148.268 222.352 148.268 222.372 148.248C222.372 148.248 222.393 148.228 222.413 148.208H222.433L222.514 148.248L222.534 148.268Z" fill="#0C2D3A"/>
<path d="M222.656 147.684H222.757V147.986H223.142V147.684H223.244V148.389H223.142V148.067H222.757V148.389H222.656V147.684Z" fill="#0C2D3A"/>
<path d="M223.629 147.684H223.73L224.013 148.389H223.892L223.811 148.188H223.507L223.426 148.389H223.325L223.608 147.684H223.629ZM223.791 148.107L223.669 147.785L223.548 148.107H223.77H223.791Z" fill="#0C2D3A"/>
<path d="M224.094 147.684H224.317C224.317 147.684 224.398 147.684 224.439 147.684C224.479 147.684 224.5 147.704 224.52 147.724C224.52 147.724 224.56 147.765 224.56 147.785C224.56 147.805 224.56 147.825 224.56 147.865C224.56 147.906 224.56 147.946 224.52 147.986C224.479 148.026 224.459 148.047 224.419 148.067L224.581 148.369H224.459L224.297 148.087H224.155V148.369H224.054V147.664L224.094 147.684ZM224.338 148.026C224.338 148.026 224.419 148.026 224.439 147.986C224.459 147.966 224.479 147.926 224.479 147.906C224.479 147.865 224.479 147.845 224.439 147.805C224.419 147.785 224.378 147.765 224.338 147.765H224.196V148.006H224.338V148.026Z" fill="#0C2D3A"/>
<path d="M225.107 148.027H225.35V148.309C225.35 148.309 225.33 148.329 225.31 148.349C225.31 148.349 225.269 148.369 225.249 148.389C225.229 148.389 225.209 148.389 225.168 148.409C225.148 148.409 225.107 148.409 225.067 148.409C225.006 148.409 224.966 148.409 224.925 148.389C224.884 148.389 224.844 148.349 224.803 148.309C224.763 148.268 224.743 148.228 224.722 148.188C224.722 148.147 224.702 148.087 224.702 148.047C224.702 148.006 224.702 147.946 224.722 147.906C224.722 147.865 224.763 147.825 224.803 147.785C224.844 147.745 224.864 147.724 224.925 147.704C224.966 147.704 225.026 147.684 225.067 147.684C225.107 147.684 225.148 147.684 225.168 147.684C225.188 147.684 225.229 147.704 225.249 147.724C225.269 147.724 225.29 147.745 225.31 147.765C225.31 147.765 225.33 147.805 225.35 147.805L225.269 147.865L225.229 147.825C225.229 147.825 225.209 147.805 225.188 147.785C225.188 147.785 225.148 147.785 225.128 147.765C225.107 147.765 225.087 147.765 225.047 147.765C225.006 147.765 224.966 147.765 224.945 147.785C224.905 147.785 224.884 147.825 224.864 147.845C224.844 147.865 224.824 147.906 224.824 147.926C224.824 147.946 224.824 148.006 224.824 148.027C224.824 148.067 224.824 148.107 224.824 148.147C224.824 148.188 224.864 148.208 224.884 148.228C224.905 148.248 224.925 148.268 224.966 148.288C225.006 148.288 225.026 148.309 225.067 148.309C225.107 148.309 225.148 148.309 225.168 148.309C225.188 148.309 225.229 148.288 225.249 148.268V148.127H225.087V148.047L225.107 148.027Z" fill="#0C2D3A"/>
<path d="M225.512 147.684H225.614V148.389H225.512V147.684Z" fill="#0C2D3A"/>
<path d="M225.776 147.684H225.877L226.262 148.248V147.684H226.363V148.389H226.262L225.877 147.825V148.389H225.776V147.684Z" fill="#0C2D3A"/>
<path d="M226.89 148.027H227.133V148.309C227.133 148.309 227.113 148.329 227.093 148.349C227.093 148.349 227.052 148.369 227.032 148.389C227.012 148.389 226.991 148.389 226.951 148.409C226.931 148.409 226.89 148.409 226.85 148.409C226.789 148.409 226.748 148.409 226.708 148.389C226.667 148.389 226.627 148.349 226.586 148.309C226.546 148.268 226.525 148.228 226.505 148.188C226.505 148.147 226.485 148.087 226.485 148.047C226.485 148.006 226.485 147.946 226.505 147.906C226.505 147.865 226.546 147.825 226.586 147.785C226.627 147.745 226.647 147.724 226.708 147.704C226.748 147.704 226.809 147.684 226.85 147.684C226.89 147.684 226.931 147.684 226.951 147.684C226.971 147.684 227.012 147.704 227.032 147.724C227.052 147.724 227.072 147.745 227.093 147.765C227.093 147.765 227.113 147.805 227.133 147.805L227.052 147.865L227.012 147.825C227.012 147.825 226.991 147.805 226.971 147.785C226.971 147.785 226.931 147.785 226.91 147.765C226.89 147.765 226.87 147.765 226.829 147.765C226.789 147.765 226.748 147.765 226.728 147.785C226.687 147.785 226.667 147.825 226.647 147.845C226.627 147.865 226.606 147.906 226.606 147.926C226.606 147.946 226.606 148.006 226.606 148.027C226.606 148.067 226.606 148.107 226.606 148.147C226.606 148.188 226.647 148.208 226.667 148.228C226.687 148.248 226.708 148.268 226.748 148.288C226.789 148.288 226.809 148.309 226.85 148.309C226.89 148.309 226.931 148.309 226.951 148.309C226.971 148.309 227.012 148.288 227.032 148.268V148.127H226.87V148.047L226.89 148.027Z" fill="#0C2D3A"/>
<path d="M223.021 144.078L222.494 145.669C222.494 145.669 222.393 145.73 222.372 145.669L221.826 144.058C221.826 144.058 221.785 144.018 221.765 144.018H219.354C219.354 144.018 219.293 144.038 219.293 144.078V146.455C219.293 146.455 219.313 146.515 219.354 146.515H221.035C221.035 146.515 221.096 146.495 221.096 146.455V146.092C221.096 146.092 221.076 146.032 221.035 146.032H219.921C219.921 146.032 219.86 146.012 219.86 145.972V145.569C219.86 145.569 219.881 145.508 219.921 145.508H220.691C220.691 145.508 220.752 145.488 220.752 145.448V145.105C220.752 145.105 220.732 145.045 220.691 145.045H219.921C219.921 145.045 219.86 145.025 219.86 144.985V144.622C219.86 144.622 219.881 144.561 219.921 144.561H221.299C221.299 144.561 221.36 144.561 221.36 144.602L222.069 146.536C222.069 146.536 222.109 146.576 222.129 146.576H222.636C222.636 146.576 222.697 146.576 222.697 146.536L223.568 144.159C223.568 144.159 223.568 144.078 223.507 144.078H223.041C223.041 144.078 222.98 144.078 222.98 144.118L223.021 144.078Z" fill="#0C2D3A"/>
<path d="M223.649 146.817C223.649 146.817 223.71 146.777 223.73 146.797C223.791 146.817 223.851 146.858 223.892 146.858C223.973 146.878 224.054 146.898 224.155 146.898C224.277 146.898 224.378 146.858 224.439 146.797C224.5 146.737 224.54 146.636 224.54 146.495C224.54 146.495 224.479 146.415 224.439 146.435C224.338 146.495 224.216 146.515 224.074 146.515C223.953 146.515 223.831 146.495 223.73 146.455C223.629 146.415 223.548 146.354 223.487 146.274C223.426 146.193 223.365 146.112 223.325 146.012C223.284 145.911 223.264 145.79 223.264 145.669C223.264 145.528 223.284 145.387 223.345 145.286C223.406 145.186 223.466 145.065 223.548 144.984C223.629 144.904 223.75 144.843 223.872 144.783C223.993 144.743 224.135 144.722 224.297 144.722C224.459 144.722 224.581 144.722 224.723 144.763C224.844 144.783 224.945 144.803 225.026 144.843C225.047 144.843 225.067 144.884 225.067 144.904V146.475C225.067 146.757 224.986 146.979 224.824 147.12C224.662 147.261 224.439 147.321 224.155 147.321C223.993 147.321 223.851 147.321 223.73 147.281C223.629 147.261 223.548 147.22 223.466 147.18C223.426 147.18 223.426 147.12 223.446 147.099L223.608 146.817H223.649ZM224.581 145.266C224.581 145.266 224.581 145.206 224.54 145.206H224.479C224.479 145.206 224.398 145.186 224.338 145.186C224.257 145.186 224.196 145.186 224.135 145.226C224.074 145.246 224.034 145.286 223.993 145.327C223.953 145.367 223.932 145.427 223.912 145.488C223.912 145.548 223.892 145.609 223.892 145.669C223.892 145.79 223.932 145.891 223.993 145.971C224.054 146.052 224.155 146.092 224.257 146.092C224.358 146.092 224.459 146.072 224.52 146.012C224.581 145.951 224.601 145.871 224.601 145.75V145.266H224.581Z" fill="#256981"/>
<path d="M225.249 145.649C225.249 145.528 225.27 145.387 225.31 145.287C225.351 145.166 225.432 145.065 225.513 144.984C225.594 144.904 225.695 144.823 225.817 144.783C225.938 144.743 226.06 144.702 226.201 144.702C226.343 144.702 226.465 144.723 226.586 144.783C226.708 144.823 226.809 144.904 226.89 144.984C226.971 145.065 227.032 145.166 227.093 145.287C227.133 145.407 227.154 145.528 227.154 145.649C227.154 145.77 227.133 145.911 227.093 146.012C227.052 146.133 226.971 146.233 226.89 146.314C226.809 146.395 226.708 146.475 226.586 146.515C226.465 146.556 226.343 146.596 226.201 146.596C226.06 146.596 225.938 146.576 225.817 146.515C225.695 146.475 225.594 146.395 225.513 146.314C225.432 146.233 225.371 146.133 225.31 146.012C225.27 145.891 225.249 145.77 225.249 145.649ZM226.201 146.133C226.201 146.133 226.323 146.133 226.384 146.092C226.445 146.052 226.485 146.032 226.526 145.992C226.566 145.951 226.586 145.891 226.607 145.83C226.607 145.77 226.627 145.71 226.627 145.649C226.627 145.589 226.627 145.528 226.607 145.468C226.607 145.407 226.566 145.367 226.526 145.327C226.485 145.287 226.445 145.246 226.384 145.226C226.323 145.206 226.262 145.186 226.201 145.186C226.141 145.186 226.08 145.186 226.019 145.226C225.958 145.246 225.918 145.287 225.877 145.327C225.837 145.367 225.817 145.428 225.796 145.468C225.796 145.528 225.776 145.589 225.776 145.649C225.776 145.71 225.776 145.77 225.796 145.83C225.796 145.891 225.837 145.931 225.877 145.992C225.918 146.032 225.958 146.072 226.019 146.092C226.08 146.112 226.141 146.133 226.201 146.133Z" fill="#256981"/>
<path d="M226.931 144.823C226.931 144.823 226.931 144.803 226.931 144.783C226.931 144.783 226.931 144.763 226.951 144.743C226.951 144.743 226.971 144.743 226.991 144.723C226.991 144.723 227.012 144.723 227.032 144.723C227.052 144.723 227.052 144.723 227.072 144.723C227.093 144.723 227.093 144.723 227.113 144.743C227.113 144.743 227.113 144.763 227.133 144.783C227.133 144.783 227.133 144.803 227.133 144.823C227.133 144.844 227.133 144.844 227.133 144.864C227.133 144.864 227.133 144.884 227.113 144.904C227.113 144.904 227.093 144.904 227.072 144.924C227.072 144.924 227.052 144.924 227.032 144.924C227.012 144.924 227.012 144.924 226.991 144.924C226.991 144.924 226.971 144.924 226.951 144.904C226.951 144.904 226.951 144.884 226.931 144.864C226.91 144.844 226.931 144.844 226.931 144.823ZM227.032 144.924C227.032 144.924 227.052 144.924 227.072 144.924C227.072 144.924 227.093 144.924 227.093 144.904C227.093 144.904 227.093 144.904 227.093 144.864C227.093 144.864 227.093 144.844 227.093 144.823C227.093 144.803 227.093 144.803 227.093 144.783C227.093 144.763 227.093 144.763 227.093 144.743C227.093 144.723 227.093 144.743 227.072 144.723C227.072 144.723 227.052 144.723 227.032 144.723C227.012 144.723 227.012 144.723 226.991 144.723C226.991 144.723 226.971 144.723 226.971 144.743C226.971 144.763 226.971 144.743 226.971 144.783C226.971 144.823 226.971 144.803 226.971 144.823C226.971 144.844 226.971 144.844 226.971 144.864C226.971 144.864 226.971 144.884 226.971 144.904C226.971 144.904 226.971 144.904 226.991 144.924C226.991 144.924 227.012 144.924 227.032 144.924ZM226.991 144.763H227.032H227.052C227.052 144.763 227.052 144.763 227.052 144.783V144.864V144.823H226.991V144.864V144.743V144.763ZM227.032 144.823H227.052C227.052 144.823 227.052 144.783 227.032 144.783H227.012V144.823H227.032Z" fill="#256981"/>
<path d="M228.875 156.165H217.389V164.263H228.875V156.165Z" fill="#E1E5E5"/>
<path d="M227.012 157.091H225.148C224.924 157.091 224.743 157.272 224.743 157.494V162.772C224.743 162.995 224.924 163.175 225.148 163.175H227.012C227.235 163.175 227.417 162.995 227.417 162.772V157.494C227.417 157.272 227.235 157.091 227.012 157.091Z" fill="#0C2D3A"/>
<path d="M221.116 157.091H219.253C219.029 157.091 218.847 157.272 218.847 157.494V162.772C218.847 162.995 219.029 163.175 219.253 163.175H221.116C221.34 163.175 221.522 162.995 221.522 162.772V157.494C221.522 157.272 221.34 157.091 221.116 157.091Z" fill="#0C2D3A"/>
<path d="M229.362 173.026C227.538 173.026 225.553 172.18 225.553 170.326V160.194H226.404V170.326C226.404 171.595 227.943 172.18 229.362 172.18C230.78 172.18 232.319 171.595 232.319 170.326V137.189C232.319 136.423 232.076 135.819 231.61 135.376C230.618 134.449 228.875 134.55 228.855 134.57L228.794 133.744C228.794 133.744 230.901 133.603 232.177 134.771C232.826 135.376 233.15 136.182 233.15 137.189V170.326C233.15 172.18 231.185 173.026 229.341 173.026H229.362Z" fill="#256981"/>
<path d="M215.525 125.304V136.806H230.719V123.833H215.525V125.304V125.304Z" fill="#CCD3D4"/>
<path d="M228.875 129.635H217.389V141.882H228.875V129.635Z" fill="#E1E5E5"/>
<path d="M227.721 130.521H218.523V141.016H227.721V130.521Z" fill="#A8C2CB"/>
<path d="M161.415 69H131.757V142.104H161.415V69Z" fill="#256981"/>
<path d="M157.931 108.604H154.811V112.451H157.931V108.604Z" fill="#A8C2CB"/>
<path d="M148.915 100.445H145.796V104.192H148.915V100.445Z" fill="#A8C2CB"/>
<path d="M148.915 108.604H145.796V112.451H148.915V108.604Z" fill="#A8C2CB"/>
<path d="M139.88 100.445H136.76V104.192H139.88V100.445Z" fill="#A8C2CB"/>
<path d="M139.88 108.604H136.76V112.451H139.88V108.604Z" fill="#A8C2CB"/>
<path d="M157.931 117.084H154.811V120.831H157.931V117.084Z" fill="#A8C2CB"/>
<path d="M148.915 117.084H145.796V120.831H148.915V117.084Z" fill="#A8C2CB"/>
<path d="M148.915 125.384H145.796V129.131H148.915V125.384Z" fill="#A8C2CB"/>
<path d="M139.88 117.084H136.76V120.831H139.88V117.084Z" fill="#A8C2CB"/>
<path d="M181.795 100.667H153.575V142.124H181.795V100.667Z" fill="#CCD3D4"/>
<path d="M161.719 103.91H155.722V105.522H161.719V103.91Z" fill="#23A48B"/>
<path d="M174.867 103.91H168.728V105.522H174.867V103.91Z" fill="#23A48B"/>
<path d="M161.719 108.604H155.722V110.215H161.719V108.604Z" fill="#23A48B"/>
<path d="M174.867 108.604H168.728V110.215H174.867V108.604Z" fill="#23A48B"/>
<path d="M161.719 113.277H155.722V114.889H161.719V113.277Z" fill="#23A48B"/>
<path d="M174.867 113.277H168.728V114.889H174.867V113.277Z" fill="#23A48B"/>
<path d="M161.719 117.951H155.722V119.562H161.719V117.951Z" fill="#23A48B"/>
<path d="M174.867 117.951H168.728V119.562H174.867V117.951Z" fill="#23A48B"/>
<path d="M161.719 122.584H155.722V124.196H161.719V122.584Z" fill="#23A48B"/>
<path d="M174.867 122.584H168.728V124.196H174.867V122.584Z" fill="#23A48B"/>
<path d="M161.719 127.278H155.722V128.889H161.719V127.278Z" fill="#23A48B"/>
<path d="M174.867 127.278H168.728V128.889H174.867V127.278Z" fill="#23A48B"/>
<path d="M161.719 131.931H155.722V133.542H161.719V131.931Z" fill="#23A48B"/>
<path d="M174.867 131.931H168.728V133.542H174.867V131.931Z" fill="#23A48B"/>
<path d="M161.719 136.625H155.722V138.236H161.719V136.625Z" fill="#23A48B"/>
<path d="M174.867 136.625H168.728V138.236H174.867V136.625Z" fill="#23A48B"/>
<path d="M202.418 73.2505H176.811V142.124H202.418V73.2505Z" fill="#256981"/>
<path d="M199.177 121.839H180.053V123.047H199.177V121.839Z" fill="#23A48B"/>
<path d="M199.177 125.303H180.053V126.512H199.177V125.303Z" fill="#23A48B"/>
<path d="M199.177 128.788H180.053V129.997H199.177V128.788Z" fill="#23A48B"/>
<path d="M199.177 132.253H180.053V133.462H199.177V132.253Z" fill="#23A48B"/>
<path d="M186.049 78.7297H180.053V79.9384H186.049V78.7297Z" fill="#CCD3D4"/>
<path d="M199.177 78.7297H193.038V79.9384H199.177V78.7297Z" fill="#CCD3D4"/>
<path d="M186.049 82.1946H180.053V83.4032H186.049V82.1946Z" fill="#CCD3D4"/>
<path d="M199.177 82.1946H193.038V83.4032H199.177V82.1946Z" fill="#CCD3D4"/>
<path d="M186.049 85.6794H180.053V86.8881H186.049V85.6794Z" fill="#CCD3D4"/>
<path d="M199.177 85.6794H193.038V86.8881H199.177V85.6794Z" fill="#CCD3D4"/>
<path d="M186.049 89.1443H180.053V90.3529H186.049V89.1443Z" fill="#CCD3D4"/>
<path d="M199.177 89.1443H193.038V90.3529H199.177V89.1443Z" fill="#CCD3D4"/>
<path d="M186.049 92.5891H180.053V93.7978H186.049V92.5891Z" fill="#CCD3D4"/>
<path d="M199.177 92.5891H193.038V93.7978H199.177V92.5891Z" fill="#CCD3D4"/>
<path d="M186.049 96.074H180.053V97.2826H186.049V96.074Z" fill="#CCD3D4"/>
<path d="M199.177 96.074H193.038V97.2826H199.177V96.074Z" fill="#CCD3D4"/>
<path d="M186.049 99.5388H180.053V100.747H186.049V99.5388Z" fill="#CCD3D4"/>
<path d="M199.177 99.5388H193.038V100.747H199.177V99.5388Z" fill="#CCD3D4"/>
<path d="M186.049 103.024H180.053V104.233H186.049V103.024Z" fill="#CCD3D4"/>
<path d="M199.177 103.024H193.038V104.233H199.177V103.024Z" fill="#CCD3D4"/>
<path d="M157.931 74.7412H154.811V78.4881H157.931V74.7412Z" fill="#A8C2CB"/>
<path d="M157.931 82.8796H154.811V86.7272H157.931V82.8796Z" fill="#A8C2CB"/>
<path d="M148.915 74.7412H145.796V78.4881H148.915V74.7412Z" fill="#A8C2CB"/>
<path d="M148.915 82.8796H145.796V86.7272H148.915V82.8796Z" fill="#A8C2CB"/>
<path d="M139.88 74.7412H136.76V78.4881H139.88V74.7412Z" fill="#A8C2CB"/>
<path d="M139.88 82.8796H136.76V86.7272H139.88V82.8796Z" fill="#A8C2CB"/>
<path d="M157.931 91.3604H154.811V95.1072H157.931V91.3604Z" fill="#A8C2CB"/>
<path d="M148.915 91.3604H145.796V95.1072H148.915V91.3604Z" fill="#A8C2CB"/>
<path d="M139.88 91.3604H136.76V95.1072H139.88V91.3604Z" fill="#A8C2CB"/>
<path d="M203.836 142.869C203.654 142.406 203.33 142.003 202.904 141.62C201.203 140.13 197.738 139.203 193.889 138.458C193.464 138.377 193.059 138.297 192.633 138.216C190.77 137.874 188.845 137.571 187.022 137.249C183.517 136.625 178.533 134.127 174.907 132.334C170.086 129.957 154.608 130.037 149.625 131.347C146.444 132.233 143 133.321 139.637 134.469C137.105 135.315 134.633 136.202 132.365 137.048C131.149 137.491 130.44 138.337 130.217 139.687C129.954 140.956 129.751 142.366 129.65 143.675C129.569 144.844 129.549 146.052 129.65 147.2C133.377 145.911 137.247 144.682 140.853 143.635C141.38 143.413 141.967 143.272 142.554 143.192C148.632 141.943 164.312 141.963 169.356 144.441C173.307 146.395 178.736 149.114 182.565 149.799C183.314 149.94 184.105 150.061 184.874 150.202C184.874 150.081 184.874 149.94 184.874 149.819C184.874 146.133 187.873 143.151 191.58 143.151C195.287 143.151 198.285 146.133 198.285 149.819C198.285 151.008 197.961 152.136 197.394 153.103C197.779 153.264 198.164 153.445 198.488 153.626L202.6 153.365C205.74 152.801 204.667 144.884 203.877 142.89L203.836 142.869Z" fill="#23A48B"/>
<path d="M191.519 144.441C188.541 144.441 186.11 146.838 186.11 149.819C186.11 150.021 186.11 150.222 186.151 150.424C189.716 151.028 193.342 151.693 196.098 152.639C196.604 151.814 196.908 150.847 196.908 149.819C196.908 146.858 194.497 144.441 191.499 144.441H191.519Z" fill="#23A48B"/>
<path d="M197.617 158.884L199.096 158.784C198.751 158.602 198.387 158.421 198.002 158.26C197.88 158.461 197.759 158.683 197.617 158.864V158.884Z" fill="#0C2D3A"/>
<path d="M200.838 157.615C200.595 157.011 200.149 156.507 199.663 156.104C198.002 154.755 195.652 154.11 193.606 153.586C191.154 152.962 188.662 152.539 186.171 152.116C185.725 152.035 185.279 151.975 184.854 151.894C184.064 151.753 183.294 151.632 182.544 151.491C178.716 150.806 173.307 148.087 169.336 146.133C164.292 143.655 148.612 143.635 142.534 144.884C142.271 144.944 142.028 145.005 141.785 145.065C141.46 145.146 141.157 145.247 140.832 145.327C137.226 146.354 133.357 147.603 129.629 148.893C127.32 149.678 125.071 150.484 122.985 151.27C121.648 151.753 120.878 152.68 120.655 154.15C120.371 155.54 120.149 157.071 120.027 158.481C119.966 159.307 119.926 160.133 119.946 160.959C123.755 159.67 127.664 158.421 131.27 157.434C136.943 155.943 154.507 155.863 159.977 158.562C164.109 160.597 169.761 163.437 173.752 164.142C175.819 164.505 178.007 164.867 180.134 165.25V165.189C180.134 161.181 183.395 157.937 187.427 157.937C191.458 157.937 194.72 161.181 194.72 165.189C194.72 166.781 194.193 168.231 193.322 169.44L199.399 169.057C202.823 168.453 201.648 159.811 200.797 157.635L200.838 157.615Z" fill="#256981"/>
<path d="M192.187 168.594C192.896 167.627 193.302 166.459 193.302 165.169C193.302 161.946 190.668 159.327 187.427 159.327C184.185 159.327 181.552 161.946 181.552 165.169C181.552 165.27 181.552 165.391 181.552 165.492C185.907 166.338 189.858 167.365 191.782 169.077C191.924 168.916 192.046 168.755 192.187 168.594V168.594Z" fill="#256981"/>
<path d="M192.836 172.038C192.633 171.515 192.269 171.051 191.782 170.608C189.858 168.916 185.907 167.869 181.552 167.023C181.086 166.922 180.6 166.841 180.114 166.761C177.986 166.378 175.799 166.035 173.732 165.653C169.741 164.948 164.089 162.107 159.956 160.073C154.466 157.373 136.902 157.474 131.25 158.945C127.644 159.952 123.734 161.181 119.926 162.47C117.049 163.437 114.233 164.444 111.66 165.391C110.283 165.894 109.472 166.861 109.229 168.392C108.946 169.843 108.703 171.434 108.581 172.905C108.297 176.43 108.642 180.137 110.506 182.735C111.053 183.46 111.701 183.843 112.592 183.904L118.001 184.327H118.022C117.11 183.078 116.543 181.547 116.543 179.875C116.543 175.705 119.946 172.3 124.16 172.3C128.374 172.3 131.777 175.685 131.777 179.875C131.777 181.547 131.23 183.078 130.318 184.327H172.699C171.787 183.057 171.24 181.526 171.24 179.875C171.24 175.705 174.644 172.3 178.858 172.3C183.071 172.3 186.475 175.685 186.475 179.875C186.475 181.526 185.928 183.057 185.036 184.306L191.377 183.904C194.943 183.279 193.707 174.275 192.836 171.998V172.038Z" fill="#295863"/>
<path d="M124.18 173.831C120.797 173.831 118.042 176.571 118.042 179.935C118.042 181.285 118.487 182.514 119.237 183.541C120.351 185.052 122.154 186.039 124.18 186.039C126.206 186.039 128.009 185.052 129.143 183.521C129.893 182.514 130.318 181.265 130.318 179.935C130.318 176.571 127.563 173.831 124.18 173.831V173.831Z" fill="#295863"/>
<path d="M178.858 173.831C175.474 173.831 172.719 176.571 172.719 179.935C172.719 181.264 173.165 182.493 173.894 183.5C175.008 185.031 176.811 186.019 178.858 186.019C180.904 186.019 182.707 185.011 183.821 183.48C184.55 182.473 184.996 181.244 184.996 179.915C184.996 176.551 182.241 173.811 178.858 173.811V173.831Z" fill="#295863"/>
<path d="M212.709 138.478C212.709 138.478 206.733 138.941 207.564 158.078C208.394 177.236 205.761 181.305 193.322 180.741" stroke="#256981" stroke-width="0.52" stroke-miterlimit="10"/>
<path d="M227.62 183.964H212.507V189H227.62V183.964Z" fill="#E1E5E5"/>
<path d="M228.754 186.966H211.393V189H228.754V186.966Z" fill="#CCD3D4"/>
<path d="M211.96 134.449V185.535H228.187V127.943H211.96V134.449Z" fill="#CCD3D4"/>
<path d="M219.192 158.683H214.917V161.1H219.192V158.683Z" fill="#0C2D3A"/>
<path d="M215.971 153.385H216.457V153.485H216.093V153.727H216.376V153.828H216.093V154.17H215.991V153.405L215.971 153.385Z" fill="#0C2D3A"/>
<path d="M216.741 153.385H216.862L217.166 154.15H217.045L216.963 153.929H216.66L216.579 154.15H216.457L216.761 153.385H216.741ZM216.923 153.848L216.801 153.506L216.68 153.848H216.923V153.848Z" fill="#0C2D3A"/>
<path d="M217.268 153.949L217.308 153.989C217.308 153.989 217.328 154.009 217.349 154.03C217.349 154.03 217.389 154.03 217.409 154.05C217.43 154.07 217.45 154.05 217.47 154.05C217.511 154.05 217.551 154.05 217.592 154.009C217.632 153.969 217.632 153.949 217.632 153.909C217.632 153.868 217.632 153.828 217.592 153.808C217.551 153.788 217.511 153.768 217.45 153.747C217.409 153.747 217.389 153.747 217.369 153.727C217.349 153.727 217.328 153.707 217.308 153.687C217.308 153.687 217.268 153.647 217.268 153.627C217.268 153.606 217.268 153.566 217.268 153.546C217.268 153.526 217.268 153.486 217.268 153.465C217.268 153.445 217.288 153.425 217.308 153.405C217.328 153.405 217.349 153.365 217.389 153.365C217.43 153.365 217.45 153.365 217.49 153.365C217.531 153.365 217.551 153.365 217.592 153.365C217.612 153.365 217.632 153.365 217.652 153.385C217.652 153.385 217.693 153.405 217.693 153.425H217.713L217.632 153.526H217.612L217.571 153.486C217.571 153.486 217.531 153.486 217.531 153.465C217.531 153.465 217.49 153.465 217.47 153.465C217.45 153.465 217.43 153.465 217.409 153.465C217.409 153.465 217.369 153.465 217.369 153.486C217.369 153.506 217.369 153.506 217.349 153.526C217.349 153.526 217.349 153.546 217.349 153.566V153.606C217.349 153.606 217.349 153.627 217.389 153.647C217.389 153.647 217.43 153.647 217.45 153.667C217.47 153.667 217.49 153.667 217.531 153.687C217.551 153.687 217.592 153.687 217.612 153.707C217.632 153.707 217.673 153.727 217.693 153.747C217.713 153.747 217.734 153.788 217.754 153.808C217.754 153.828 217.754 153.868 217.754 153.909C217.754 153.949 217.754 153.969 217.734 153.989C217.734 154.009 217.693 154.05 217.673 154.07C217.652 154.09 217.612 154.11 217.592 154.11C217.571 154.11 217.531 154.11 217.49 154.11C217.45 154.11 217.43 154.11 217.389 154.11C217.369 154.11 217.328 154.11 217.308 154.07C217.288 154.07 217.268 154.05 217.247 154.03L217.207 153.989L217.288 153.909L217.268 153.949Z" fill="#0C2D3A"/>
<path d="M218.078 153.465H217.794V153.365H218.442V153.465H218.179V154.13H218.078V153.465Z" fill="#0C2D3A"/>
<path d="M219.435 154.009C219.435 154.009 219.415 154.029 219.395 154.05C219.395 154.05 219.354 154.09 219.334 154.09C219.314 154.09 219.273 154.11 219.253 154.13C219.212 154.13 219.192 154.13 219.152 154.13C219.091 154.13 219.05 154.13 218.989 154.11C218.949 154.11 218.908 154.07 218.868 154.029C218.827 153.989 218.807 153.949 218.787 153.909C218.787 153.868 218.767 153.808 218.767 153.747C218.767 153.687 218.767 153.647 218.787 153.586C218.787 153.546 218.827 153.485 218.868 153.465C218.908 153.425 218.949 153.405 218.989 153.385C219.03 153.365 219.091 153.344 219.152 153.344C219.192 153.344 219.233 153.344 219.253 153.344C219.293 153.344 219.314 153.365 219.334 153.385C219.354 153.385 219.374 153.425 219.395 153.425C219.415 153.425 219.435 153.465 219.435 153.465L219.354 153.526L219.314 153.485C219.314 153.485 219.293 153.465 219.273 153.445C219.273 153.445 219.233 153.425 219.212 153.425C219.192 153.425 219.172 153.425 219.131 153.425C219.091 153.425 219.05 153.425 219.01 153.445C218.969 153.465 218.949 153.485 218.929 153.506C218.908 153.526 218.888 153.566 218.868 153.606C218.868 153.647 218.868 153.687 218.868 153.727C218.868 153.768 218.868 153.808 218.868 153.848C218.868 153.888 218.888 153.909 218.929 153.949C218.949 153.969 218.989 153.989 219.01 154.009C219.05 154.009 219.07 154.029 219.111 154.029C219.152 154.029 219.172 154.029 219.192 154.029C219.212 154.029 219.233 154.029 219.253 153.989C219.253 153.989 219.293 153.969 219.293 153.949V153.909L219.395 153.969L219.435 154.009Z" fill="#0C2D3A"/>
<path d="M219.557 153.385H219.658V153.707H220.083V153.385H220.185V154.15H220.083V153.808H219.658V154.15H219.557V153.385Z" fill="#0C2D3A"/>
<path d="M220.59 153.385H220.711L221.015 154.15H220.894L220.813 153.929H220.509L220.428 154.15H220.306L220.61 153.385H220.59ZM220.772 153.848L220.651 153.506L220.529 153.848H220.772V153.848Z" fill="#0C2D3A"/>
<path d="M221.096 153.385H221.34C221.34 153.385 221.421 153.385 221.461 153.385C221.502 153.385 221.522 153.425 221.542 153.445C221.562 153.465 221.583 153.486 221.583 153.526C221.583 153.546 221.583 153.586 221.583 153.606C221.583 153.647 221.583 153.707 221.542 153.727C221.502 153.747 221.481 153.788 221.441 153.808L221.623 154.13H221.502L221.34 153.828H221.177V154.13H221.076V153.365L221.096 153.385ZM221.34 153.747C221.34 153.747 221.421 153.747 221.441 153.707C221.461 153.687 221.481 153.647 221.481 153.606C221.481 153.566 221.481 153.526 221.441 153.506C221.421 153.486 221.38 153.465 221.34 153.465H221.198V153.727H221.34V153.747Z" fill="#0C2D3A"/>
<path d="M222.17 153.747H222.433V154.05C222.433 154.05 222.393 154.07 222.393 154.09C222.393 154.09 222.352 154.11 222.332 154.13C222.312 154.13 222.271 154.13 222.251 154.15C222.211 154.15 222.19 154.15 222.15 154.15C222.089 154.15 222.028 154.15 221.988 154.13C221.947 154.13 221.907 154.09 221.866 154.05C221.826 154.009 221.805 153.969 221.785 153.929C221.785 153.888 221.765 153.828 221.765 153.768C221.765 153.707 221.765 153.667 221.785 153.606C221.785 153.566 221.826 153.506 221.866 153.486C221.907 153.445 221.947 153.425 221.988 153.405C222.028 153.385 222.089 153.365 222.15 153.365C222.19 153.365 222.231 153.365 222.251 153.365C222.271 153.365 222.312 153.385 222.332 153.405C222.352 153.405 222.373 153.445 222.393 153.445L222.433 153.486L222.352 153.546L222.312 153.506C222.312 153.506 222.292 153.486 222.271 153.465C222.271 153.465 222.231 153.445 222.211 153.445C222.19 153.445 222.17 153.445 222.13 153.445C222.089 153.445 222.049 153.445 222.008 153.465C221.967 153.465 221.947 153.506 221.927 153.526C221.907 153.546 221.886 153.586 221.866 153.627C221.846 153.667 221.866 153.707 221.866 153.747C221.866 153.788 221.866 153.828 221.886 153.868C221.886 153.909 221.927 153.929 221.947 153.969C221.967 153.989 222.008 154.009 222.028 154.03C222.069 154.03 222.089 154.05 222.13 154.05C222.17 154.05 222.211 154.05 222.251 154.05C222.292 154.05 222.312 154.03 222.332 154.009V153.848H222.17V153.747V153.747Z" fill="#0C2D3A"/>
<path d="M222.616 153.385H222.717V154.15H222.616V153.385Z" fill="#0C2D3A"/>
<path d="M222.899 153.385H223.001L223.426 153.969V153.385H223.527V154.15H223.426L223.001 153.566V154.15H222.899V153.385Z" fill="#0C2D3A"/>
<path d="M224.095 153.747H224.358V154.05C224.358 154.05 224.317 154.07 224.317 154.09C224.317 154.09 224.277 154.11 224.257 154.13C224.236 154.13 224.196 154.13 224.176 154.15C224.135 154.15 224.115 154.15 224.074 154.15C224.014 154.15 223.953 154.15 223.912 154.13C223.872 154.13 223.831 154.09 223.791 154.05C223.75 154.009 223.73 153.969 223.71 153.929C223.71 153.888 223.689 153.828 223.689 153.768C223.689 153.707 223.689 153.667 223.71 153.606C223.71 153.566 223.75 153.506 223.791 153.486C223.831 153.445 223.872 153.425 223.912 153.405C223.953 153.385 224.014 153.365 224.074 153.365C224.115 153.365 224.155 153.365 224.176 153.365C224.196 153.365 224.236 153.385 224.257 153.405C224.277 153.405 224.297 153.445 224.317 153.445L224.358 153.486L224.277 153.546L224.236 153.506C224.236 153.506 224.216 153.486 224.196 153.465C224.196 153.465 224.155 153.445 224.135 153.445C224.115 153.445 224.095 153.445 224.054 153.445C224.014 153.445 223.973 153.445 223.933 153.465C223.892 153.465 223.872 153.506 223.852 153.526C223.831 153.546 223.811 153.586 223.791 153.627C223.77 153.667 223.791 153.707 223.791 153.747C223.791 153.788 223.791 153.828 223.811 153.868C223.811 153.909 223.852 153.929 223.872 153.969C223.892 153.989 223.933 154.009 223.953 154.03C223.993 154.03 224.014 154.05 224.054 154.05C224.095 154.05 224.135 154.05 224.176 154.05C224.216 154.05 224.236 154.03 224.257 154.009V153.848H224.095V153.747V153.747Z" fill="#0C2D3A"/>
<path d="M219.942 149.517L219.374 151.229C219.374 151.229 219.253 151.29 219.233 151.229L218.665 149.517C218.665 149.517 218.625 149.477 218.605 149.477H216.032C216.032 149.477 215.971 149.517 215.971 149.537V152.075C215.971 152.075 216.011 152.136 216.032 152.136H217.814C217.814 152.136 217.875 152.096 217.875 152.075V151.673C217.875 151.673 217.835 151.612 217.814 151.612H216.639C216.639 151.612 216.579 151.572 216.579 151.552V151.108C216.579 151.108 216.619 151.048 216.639 151.048H217.45C217.45 151.048 217.511 151.008 217.511 150.988V150.605C217.511 150.605 217.47 150.544 217.45 150.544H216.639C216.639 150.544 216.579 150.504 216.579 150.484V150.101C216.579 150.101 216.619 150.041 216.639 150.041H218.118C218.118 150.041 218.179 150.041 218.179 150.081L218.949 152.136C218.949 152.136 218.989 152.176 219.01 152.176H219.557C219.557 152.176 219.617 152.176 219.617 152.136L220.549 149.598C220.549 149.598 220.549 149.497 220.489 149.497H220.002C220.002 149.497 219.942 149.497 219.942 149.537V149.517Z" fill="#0C2D3A"/>
<path d="M220.61 152.458C220.61 152.458 220.671 152.418 220.711 152.438C220.772 152.478 220.833 152.498 220.894 152.518C220.975 152.539 221.076 152.559 221.177 152.559C221.319 152.559 221.42 152.518 221.481 152.458C221.562 152.398 221.603 152.277 221.603 152.136C221.603 152.136 221.542 152.055 221.501 152.075C221.4 152.136 221.279 152.156 221.116 152.156C220.975 152.156 220.853 152.136 220.752 152.095C220.651 152.055 220.549 151.995 220.488 151.914C220.428 151.834 220.367 151.733 220.326 151.632C220.286 151.531 220.266 151.411 220.266 151.27C220.266 151.108 220.286 150.988 220.347 150.847C220.407 150.706 220.468 150.605 220.57 150.524C220.671 150.444 220.772 150.363 220.914 150.323C221.056 150.282 221.198 150.242 221.36 150.242C221.522 150.242 221.663 150.242 221.805 150.282C221.927 150.303 222.048 150.343 222.15 150.363C222.17 150.363 222.19 150.403 222.19 150.423V152.095C222.19 152.398 222.109 152.639 221.927 152.78C221.744 152.921 221.522 153.002 221.218 153.002C221.056 153.002 220.894 153.002 220.772 152.962C220.671 152.942 220.57 152.901 220.488 152.841C220.448 152.841 220.448 152.78 220.468 152.74L220.63 152.458H220.61ZM221.603 150.806C221.603 150.806 221.582 150.746 221.542 150.746H221.481C221.481 150.746 221.4 150.726 221.339 150.726C221.258 150.726 221.177 150.726 221.116 150.766C221.056 150.786 220.995 150.826 220.954 150.887C220.914 150.927 220.873 150.988 220.853 151.048C220.853 151.108 220.833 151.169 220.833 151.249C220.833 151.39 220.873 151.491 220.934 151.572C220.995 151.652 221.096 151.693 221.218 151.693C221.339 151.693 221.42 151.672 221.501 151.612C221.562 151.552 221.603 151.471 221.603 151.35V150.826V150.806Z" fill="#256981"/>
<path d="M222.332 151.209C222.332 151.068 222.352 150.947 222.413 150.826C222.454 150.706 222.535 150.605 222.616 150.504C222.697 150.403 222.818 150.343 222.94 150.282C223.061 150.222 223.203 150.202 223.345 150.202C223.487 150.202 223.629 150.222 223.75 150.282C223.872 150.343 223.973 150.403 224.074 150.504C224.155 150.605 224.236 150.706 224.277 150.826C224.317 150.947 224.358 151.088 224.358 151.209C224.358 151.33 224.338 151.471 224.277 151.592C224.236 151.713 224.155 151.813 224.074 151.914C223.993 152.015 223.872 152.075 223.75 152.136C223.629 152.196 223.487 152.216 223.345 152.216C223.203 152.216 223.061 152.196 222.94 152.136C222.818 152.075 222.717 152.015 222.616 151.914C222.535 151.813 222.454 151.713 222.413 151.592C222.373 151.471 222.332 151.33 222.332 151.209ZM223.345 151.713C223.345 151.713 223.487 151.713 223.548 151.672C223.608 151.632 223.649 151.612 223.689 151.552C223.73 151.511 223.75 151.451 223.77 151.39C223.77 151.33 223.791 151.27 223.791 151.209C223.791 151.149 223.791 151.088 223.77 151.028C223.77 150.967 223.73 150.907 223.689 150.867C223.649 150.826 223.608 150.786 223.548 150.746C223.487 150.706 223.426 150.706 223.345 150.706C223.264 150.706 223.203 150.706 223.142 150.746C223.082 150.766 223.041 150.806 223.001 150.867C222.96 150.907 222.94 150.967 222.92 151.028C222.92 151.088 222.899 151.149 222.899 151.209C222.899 151.27 222.899 151.33 222.92 151.39C222.92 151.451 222.96 151.511 223.001 151.552C223.041 151.592 223.082 151.632 223.142 151.672C223.203 151.693 223.264 151.713 223.345 151.713Z" fill="#256981"/>
<path d="M224.115 150.323V150.283C224.115 150.283 224.115 150.262 224.135 150.242C224.135 150.242 224.155 150.242 224.175 150.222C224.175 150.222 224.196 150.222 224.216 150.222C224.236 150.222 224.257 150.222 224.257 150.222C224.257 150.222 224.277 150.222 224.297 150.242C224.297 150.242 224.297 150.262 224.317 150.283C224.317 150.283 224.317 150.303 224.317 150.323C224.317 150.343 224.317 150.363 224.317 150.363C224.317 150.363 224.317 150.383 224.297 150.403C224.297 150.403 224.277 150.403 224.257 150.424C224.257 150.424 224.236 150.424 224.216 150.424C224.196 150.424 224.175 150.424 224.175 150.424C224.175 150.424 224.155 150.424 224.135 150.403C224.135 150.403 224.135 150.383 224.115 150.363C224.094 150.343 224.115 150.343 224.115 150.323ZM224.236 150.424C224.236 150.424 224.257 150.424 224.277 150.424C224.277 150.424 224.297 150.424 224.317 150.403C224.317 150.403 224.317 150.383 224.338 150.363C224.338 150.363 224.338 150.343 224.338 150.323C224.338 150.303 224.338 150.303 224.338 150.283C224.338 150.262 224.338 150.262 224.317 150.242C224.297 150.222 224.317 150.242 224.277 150.222C224.277 150.222 224.257 150.222 224.236 150.222C224.216 150.222 224.216 150.222 224.196 150.222C224.196 150.222 224.175 150.222 224.155 150.242C224.135 150.262 224.155 150.262 224.135 150.283C224.115 150.303 224.135 150.303 224.135 150.323C224.135 150.343 224.135 150.343 224.135 150.363C224.135 150.363 224.135 150.383 224.155 150.403C224.155 150.403 224.155 150.403 224.196 150.424C224.196 150.424 224.216 150.424 224.236 150.424ZM224.196 150.262H224.236H224.257C224.257 150.262 224.257 150.262 224.257 150.283V150.363V150.323H224.196V150.363V150.242V150.262ZM224.236 150.323H224.257C224.257 150.323 224.257 150.283 224.236 150.283H224.216V150.323H224.236Z" fill="#256981"/>
<path d="M226.201 162.43H213.945V171.072H226.201V162.43Z" fill="#E1E5E5"/>
<path d="M224.216 163.417H222.21C221.975 163.417 221.785 163.606 221.785 163.84V169.5C221.785 169.734 221.975 169.923 222.21 169.923H224.216C224.451 169.923 224.641 169.734 224.641 169.5V163.84C224.641 163.606 224.451 163.417 224.216 163.417Z" fill="#0C2D3A"/>
<path d="M217.936 163.417H215.93C215.695 163.417 215.505 163.606 215.505 163.84V169.5C215.505 169.734 215.695 169.923 215.93 169.923H217.936C218.171 169.923 218.361 169.734 218.361 169.5V163.84C218.361 163.606 218.171 163.417 217.936 163.417Z" fill="#0C2D3A"/>
<path d="M226.728 180.439C224.763 180.439 222.677 179.532 222.677 177.558V166.741H223.568V177.558C223.568 178.928 225.209 179.552 226.728 179.552C228.248 179.552 229.889 178.928 229.889 177.558V142.185C229.889 141.359 229.645 140.714 229.139 140.251C228.086 139.264 226.222 139.385 226.201 139.385L226.141 138.498C226.141 138.498 228.389 138.357 229.747 139.606C230.435 140.251 230.78 141.117 230.78 142.185V177.558C230.78 179.532 228.673 180.439 226.728 180.439Z" fill="#256981"/>
<path d="M211.96 129.494V141.782H228.187V127.922H211.96V129.494V129.494Z" fill="#CCD3D4"/>
<path d="M226.201 134.127H213.945V147.201H226.201V134.127Z" fill="#E1E5E5"/>
<path d="M224.986 135.053H215.161V146.254H224.986V135.053Z" fill="#A8C2CB"/>
<defs>
<linearGradient id="paint0_linear_7975_21841" x1="43.6665" y1="122" x2="143.667" y2="122" gradientUnits="userSpaceOnUse">
<stop stop-color="#E2E8F0"/>
<stop offset="1" stop-color="#E2E8F0" stop-opacity="0"/>
</linearGradient>
</defs>
</svg>
